<svg xmlns="http://www.w3.org/2000/svg" xmlns:xlink="http://www.w3.org/1999/xlink" contentStyleType="text/css" height="939.2px" preserveAspectRatio="none" style="width:3042px;height:939px;background:#FFFFFF;" version="1.1" viewBox="0 0 3042 939" width="3042.4px" zoomAndPan="magnify"><defs/><g><!--cluster application--><g id="cluster_application"><path d="M377.2,284.1136 L440.5294,284.1136 A3,3 0 0 1 442.5294,286.1136 L448.1294,304.1679 L1820.4,304.1679 A2,2 0 0 1 1822.4,306.1679 L1822.4,450.2256 A2,2 0 0 1 1820.4,452.2256 L377.2,452.2256 A2,2 0 0 1 375.2,450.2256 L375.2,286.1136 A2,2 0 0 1 377.2,284.1136 " fill="none" style="stroke:#000000;stroke-width:1.2000000000000002;"/><line style="stroke:#000000;stroke-width:1.2000000000000002;" x1="375.2" x2="448.1294" y1="304.1679" y2="304.1679"/><text fill="#000000" font-family="sans-serif" font-size="11.2" font-weight="bold" lengthAdjust="spacing" textLength="62.5294" x="378.4" y="297.6863">application</text></g><!--cluster usecase--><g id="cluster_usecase"><path d="M396.4,320.9136 L441.5854,320.9136 A3,3 0 0 1 443.5854,322.9136 L449.1854,340.9679 L1801.2,340.9679 A2,2 0 0 1 1803.2,342.9679 L1803.2,431.0256 A2,2 0 0 1 1801.2,433.0256 L396.4,433.0256 A2,2 0 0 1 394.4,431.0256 L394.4,322.9136 A2,2 0 0 1 396.4,320.9136 " fill="none" style="stroke:#000000;stroke-width:1.2000000000000002;"/><line style="stroke:#000000;stroke-width:1.2000000000000002;" x1="394.4" x2="449.1854" y1="340.9679" y2="340.9679"/><text fill="#000000" font-family="sans-serif" font-size="11.2" font-weight="bold" lengthAdjust="spacing" textLength="44.3854" x="397.6" y="334.4863">usecase</text></g><!--cluster domain--><g id="cluster_domain"><path d="M958.8,5.2816 L1001.9358,5.2816 A3,3 0 0 1 1003.9358,7.2816 L1009.5358,25.3359 L1921.2,25.3359 A2,2 0 0 1 1923.2,27.3359 L1923.2,232.4096 A2,2 0 0 1 1921.2,234.4096 L958.8,234.4096 A2,2 0 0 1 956.8,232.4096 L956.8,7.2816 A2,2 0 0 1 958.8,5.2816 " fill="none" style="stroke:#000000;stroke-width:1.2000000000000002;"/><line style="stroke:#000000;stroke-width:1.2000000000000002;" x1="956.8" x2="1009.5358" y1="25.3359" y2="25.3359"/><text fill="#000000" font-family="sans-serif" font-size="11.2" font-weight="bold" lengthAdjust="spacing" textLength="42.3358" x="960" y="18.8543">domain</text></g><!--cluster model--><g id="cluster_model"><path d="M978,42.0816 L1013.8223,42.0816 A3,3 0 0 1 1015.8223,44.0816 L1021.4223,62.1359 L1210.8,62.1359 A2,2 0 0 1 1212.8,64.1359 L1212.8,213.2096 A2,2 0 0 1 1210.8,215.2096 L978,215.2096 A2,2 0 0 1 976,213.2096 L976,44.0816 A2,2 0 0 1 978,42.0816 " fill="none" style="stroke:#000000;stroke-width:1.2000000000000002;"/><line style="stroke:#000000;stroke-width:1.2000000000000002;" x1="976" x2="1021.4223" y1="62.1359" y2="62.1359"/><text fill="#000000" font-family="sans-serif" font-size="11.2" font-weight="bold" lengthAdjust="spacing" textLength="35.0223" x="979.2" y="55.6543">model</text></g><!--cluster repository--><g id="cluster_repository"><path d="M1234,57.3376 L1292.8046,57.3376 A3,3 0 0 1 1294.8046,59.3376 L1300.4046,77.3919 L1711.6,77.3919 A2,2 0 0 1 1713.6,79.3919 L1713.6,197.9536 A2,2 0 0 1 1711.6,199.9536 L1234,199.9536 A2,2 0 0 1 1232,197.9536 L1232,59.3376 A2,2 0 0 1 1234,57.3376 " fill="none" style="stroke:#000000;stroke-width:1.2000000000000002;"/><line style="stroke:#000000;stroke-width:1.2000000000000002;" x1="1232" x2="1300.4046" y1="77.3919" y2="77.3919"/><text fill="#000000" font-family="sans-serif" font-size="11.2" font-weight="bold" lengthAdjust="spacing" textLength="58.0046" x="1235.2" y="70.9103">repository</text></g><!--cluster logger--><g id="cluster_logger"><path d="M1734.8,57.3376 L1771.7871,57.3376 A3,3 0 0 1 1773.7871,59.3376 L1779.3871,77.3919 L1902,77.3919 A2,2 0 0 1 1904,79.3919 L1904,197.9536 A2,2 0 0 1 1902,199.9536 L1734.8,199.9536 A2,2 0 0 1 1732.8,197.9536 L1732.8,59.3376 A2,2 0 0 1 1734.8,57.3376 " fill="none" style="stroke:#000000;stroke-width:1.2000000000000002;"/><line style="stroke:#000000;stroke-width:1.2000000000000002;" x1="1732.8" x2="1779.3871" y1="77.3919" y2="77.3919"/><text fill="#000000" font-family="sans-serif" font-size="11.2" font-weight="bold" lengthAdjust="spacing" textLength="36.1871" x="1736" y="70.9103">logger</text></g><!--cluster 1-infrastructure--><g id="cluster_1-infrastructure"><path d="M604.4,501.9376 L694.2509,501.9376 A3,3 0 0 1 696.2509,503.9376 L701.8509,521.9919 L1809.2,521.9919 A2,2 0 0 1 1811.2,523.9919 L1811.2,845.9696 A2,2 0 0 1 1809.2,847.9696 L604.4,847.9696 A2,2 0 0 1 602.4,845.9696 L602.4,503.9376 A2,2 0 0 1 604.4,501.9376 " fill="none" style="stroke:#000000;stroke-width:1.2000000000000002;"/><line style="stroke:#000000;stroke-width:1.2000000000000002;" x1="602.4" x2="701.8509" y1="521.9919" y2="521.9919"/><text fill="#000000" font-family="sans-serif" font-size="11.2" font-weight="bold" lengthAdjust="spacing" textLength="89.0509" x="605.6" y="515.5103">1-infrastructure</text></g><!--cluster api--><g id="cluster_api"><path d="M623.6,538.7376 L641.5359,538.7376 A3,3 0 0 1 643.5359,540.7376 L649.1359,558.7919 L1790,558.7919 A2,2 0 0 1 1792,560.7919 L1792,826.7696 A2,2 0 0 1 1790,828.7696 L623.6,828.7696 A2,2 0 0 1 621.6,826.7696 L621.6,540.7376 A2,2 0 0 1 623.6,538.7376 " fill="none" style="stroke:#000000;stroke-width:1.2000000000000002;"/><line style="stroke:#000000;stroke-width:1.2000000000000002;" x1="621.6" x2="649.1359" y1="558.7919" y2="558.7919"/><text fill="#000000" font-family="sans-serif" font-size="11.2" font-weight="bold" lengthAdjust="spacing" textLength="17.1359" x="624.8" y="552.3103">api</text></g><!--cluster 2-infrastructure--><g id="cluster_2-infrastructure"><path d="M6.8,503.2736 L96.6509,503.2736 A3,3 0 0 1 98.6509,505.2736 L104.2509,523.3279 L581.2,523.3279 A2,2 0 0 1 583.2,525.3279 L583.2,932.3696 A2,2 0 0 1 581.2,934.3696 L6.8,934.3696 A2,2 0 0 1 4.8,932.3696 L4.8,505.2736 A2,2 0 0 1 6.8,503.2736 " fill="none" style="stroke:#000000;stroke-width:1.2000000000000002;"/><line style="stroke:#000000;stroke-width:1.2000000000000002;" x1="4.8" x2="104.2509" y1="523.3279" y2="523.3279"/><text fill="#000000" font-family="sans-serif" font-size="11.2" font-weight="bold" lengthAdjust="spacing" textLength="89.0509" x="8" y="516.8463">2-infrastructure</text></g><!--cluster cdi--><g id="cluster_cdi"><path d="M26,540.0736 L43.0063,540.0736 A3,3 0 0 1 45.0063,542.0736 L50.6063,560.1279 L562,560.1279 A2,2 0 0 1 564,562.1279 L564,913.1696 A2,2 0 0 1 562,915.1696 L26,915.1696 A2,2 0 0 1 24,913.1696 L24,542.0736 A2,2 0 0 1 26,540.0736 " fill="none" style="stroke:#000000;stroke-width:1.2000000000000002;"/><line style="stroke:#000000;stroke-width:1.2000000000000002;" x1="24" x2="50.6063" y1="560.1279" y2="560.1279"/><text fill="#000000" font-family="sans-serif" font-size="11.2" font-weight="bold" lengthAdjust="spacing" textLength="16.2063" x="27.2" y="553.6463">cdi</text></g><!--cluster properties--><g id="cluster_properties"><path d="M45.2,576.8736 L104.3742,576.8736 A3,3 0 0 1 106.3742,578.8736 L111.9742,596.9279 L268.4,596.9279 A2,2 0 0 1 270.4,598.9279 L270.4,819.1456 A2,2 0 0 1 268.4,821.1456 L45.2,821.1456 A2,2 0 0 1 43.2,819.1456 L43.2,578.8736 A2,2 0 0 1 45.2,576.8736 " fill="none" style="stroke:#000000;stroke-width:1.2000000000000002;"/><line style="stroke:#000000;stroke-width:1.2000000000000002;" x1="43.2" x2="111.9742" y1="596.9279" y2="596.9279"/><text fill="#000000" font-family="sans-serif" font-size="11.2" font-weight="bold" lengthAdjust="spacing" textLength="58.3742" x="46.4" y="590.4463">properties</text></g><!--cluster 3-infrastructure--><g id="cluster_3-infrastructure"><path d="M1843.6,253.6096 L1933.4509,253.6096 A3,3 0 0 1 1935.4509,255.6096 L1941.0509,273.6639 L2844.4,273.6639 A2,2 0 0 1 2846.4,275.6639 L2846.4,480.7376 A2,2 0 0 1 2844.4,482.7376 L1843.6,482.7376 A2,2 0 0 1 1841.6,480.7376 L1841.6,255.6096 A2,2 0 0 1 1843.6,253.6096 " fill="none" style="stroke:#000000;stroke-width:1.2000000000000002;"/><line style="stroke:#000000;stroke-width:1.2000000000000002;" x1="1841.6" x2="1941.0509" y1="273.6639" y2="273.6639"/><text fill="#000000" font-family="sans-serif" font-size="11.2" font-weight="bold" lengthAdjust="spacing" textLength="89.0509" x="1844.8" y="267.1823">3-infrastructure</text></g><!--cluster persistence--><g id="cluster_persistence"><path d="M1862.8,290.4096 L1928.2573,290.4096 A3,3 0 0 1 1930.2573,292.4096 L1935.8573,310.4639 L2825.2,310.4639 A2,2 0 0 1 2827.2,312.4639 L2827.2,461.5376 A2,2 0 0 1 2825.2,463.5376 L1862.8,463.5376 A2,2 0 0 1 1860.8,461.5376 L1860.8,292.4096 A2,2 0 0 1 1862.8,290.4096 " fill="none" style="stroke:#000000;stroke-width:1.2000000000000002;"/><line style="stroke:#000000;stroke-width:1.2000000000000002;" x1="1860.8" x2="1935.8573" y1="310.4639" y2="310.4639"/><text fill="#000000" font-family="sans-serif" font-size="11.2" font-weight="bold" lengthAdjust="spacing" textLength="64.6573" x="1864" y="303.9823">persistence</text></g><!--cluster logger-slf4j--><g id="cluster_logger-slf4j"><path d="M2867.6,305.6656 L2931.2094,305.6656 A3,3 0 0 1 2933.2094,307.6656 L2938.8094,325.7199 L3034.8,325.7199 A2,2 0 0 1 3036.8,327.7199 L3036.8,446.2816 A2,2 0 0 1 3034.8,448.2816 L2867.6,448.2816 A2,2 0 0 1 2865.6,446.2816 L2865.6,307.6656 A2,2 0 0 1 2867.6,305.6656 " fill="none" style="stroke:#000000;stroke-width:1.2000000000000002;"/><line style="stroke:#000000;stroke-width:1.2000000000000002;" x1="2865.6" x2="2938.8094" y1="325.7199" y2="325.7199"/><text fill="#000000" font-family="sans-serif" font-size="11.2" font-weight="bold" lengthAdjust="spacing" textLength="62.8094" x="2868.8" y="319.2383">logger-slf4j</text></g><!--class CreateEndpointUseCase--><g id="elem_CreateEndpointUseCase"><rect codeLine="3" fill="#F1F1F1" height="68.9087" id="CreateEndpointUseCase" rx="2" ry="2" style="stroke:#181818;stroke-width:0.4000000000000001;" width="268.6327" x="1521.68" y="351.3136"/><ellipse cx="1589.031" cy="364.1136" fill="#ADD1B2" rx="8.8" ry="8.8" style="stroke:#181818;stroke-width:0.8000000000000002;"/><path d="M1588.606,369.6511 Q1587.206,369.6511 1586.2935,369.0636 Q1585.3935,368.4636 1584.9435,367.3886 Q1584.506,366.3011 1584.506,364.8636 Q1584.506,363.2386 1585.031,362.0761 Q1585.556,360.9136 1586.581,360.2886 Q1587.606,359.6636 1589.106,359.6636 Q1589.8185,359.6636 1590.356,359.8136 Q1590.8935,359.9511 1591.4435,360.2261 L1590.7935,361.8386 Q1590.2935,361.5886 1589.856,361.4886 Q1589.431,361.3886 1589.0435,361.3886 Q1588.106,361.3886 1587.5435,361.8136 Q1586.981,362.2386 1586.7435,363.0011 Q1586.506,363.7636 1586.506,364.7761 Q1586.506,366.3886 1587.081,367.1636 Q1587.656,367.9261 1588.931,367.9261 Q1589.406,367.9261 1589.906,367.8011 Q1590.406,367.6761 1591.0685,367.3761 L1591.0685,369.1511 Q1590.481,369.4011 1589.8435,369.5261 Q1589.2185,369.6511 1588.606,369.6511 Z " fill="#000000"/><text fill="#000000" font-family="sans-serif" font-size="11.2" lengthAdjust="spacing" textLength="127.1307" x="1605.431" y="368.4592">CreateEndpointUseCase</text><line style="stroke:#181818;stroke-width:0.4000000000000001;" x1="1522.48" x2="1789.5127" y1="376.9136" y2="376.9136"/><rect fill="none" height="4.8" style="stroke:#C82930;stroke-width:0.8000000000000002;" width="4.8" x="1528.08" y="386.5408"/><text fill="#000000" font-family="sans-serif" font-size="11.2" lengthAdjust="spacing" textLength="216.8312" x="1537.68" y="392.0863">endpointRepository: EndpointRepository,</text><line style="stroke:#181818;stroke-width:0.4000000000000001;" x1="1522.48" x2="1789.5127" y1="398.5679" y2="398.5679"/><ellipse cx="1530.48" cy="410.5951" fill="#84BE84" rx="2.4" ry="2.4" style="stroke:#038048;stroke-width:0.8000000000000002;"/><text fill="#000000" font-family="sans-serif" font-size="11.2" lengthAdjust="spacing" textLength="247.8327" x="1537.68" y="413.7407">execute(endpoint: Endpoint): Result&lt;Endpoint&gt;</text></g><!--class GetEndpointsUseCase--><g id="elem_GetEndpointsUseCase"><rect codeLine="7" fill="#F1F1F1" height="68.9087" id="GetEndpointsUseCase" rx="2" ry="2" style="stroke:#181818;stroke-width:0.4000000000000001;" width="237.6312" x="407.584" y="351.3136"/><ellipse cx="464.827" cy="364.1136" fill="#ADD1B2" rx="8.8" ry="8.8" style="stroke:#181818;stroke-width:0.8000000000000002;"/><path d="M464.402,369.6511 Q463.002,369.6511 462.0895,369.0636 Q461.1895,368.4636 460.7395,367.3886 Q460.302,366.3011 460.302,364.8636 Q460.302,363.2386 460.827,362.0761 Q461.352,360.9136 462.377,360.2886 Q463.402,359.6636 464.902,359.6636 Q465.6145,359.6636 466.152,359.8136 Q466.6895,359.9511 467.2395,360.2261 L466.5895,361.8386 Q466.0895,361.5886 465.652,361.4886 Q465.227,361.3886 464.8395,361.3886 Q463.902,361.3886 463.3395,361.8136 Q462.777,362.2386 462.5395,363.0011 Q462.302,363.7636 462.302,364.7761 Q462.302,366.3886 462.877,367.1636 Q463.452,367.9261 464.727,367.9261 Q465.202,367.9261 465.702,367.8011 Q466.202,367.6761 466.8645,367.3761 L466.8645,369.1511 Q466.277,369.4011 465.6395,369.5261 Q465.0145,369.6511 464.402,369.6511 Z " fill="#000000"/><text fill="#000000" font-family="sans-serif" font-size="11.2" lengthAdjust="spacing" textLength="116.3452" x="481.227" y="368.4592">GetEndpointsUseCase</text><line style="stroke:#181818;stroke-width:0.4000000000000001;" x1="408.384" x2="644.4152" y1="376.9136" y2="376.9136"/><rect fill="none" height="4.8" style="stroke:#C82930;stroke-width:0.8000000000000002;" width="4.8" x="413.984" y="386.5408"/><text fill="#000000" font-family="sans-serif" font-size="11.2" lengthAdjust="spacing" textLength="216.8312" x="423.584" y="392.0863">endpointRepository: EndpointRepository,</text><line style="stroke:#181818;stroke-width:0.4000000000000001;" x1="408.384" x2="644.4152" y1="398.5679" y2="398.5679"/><ellipse cx="416.384" cy="410.5951" fill="#84BE84" rx="2.4" ry="2.4" style="stroke:#038048;stroke-width:0.8000000000000002;"/><text fill="#000000" font-family="sans-serif" font-size="11.2" lengthAdjust="spacing" textLength="177.6985" x="423.584" y="413.7407">execute(): Result&lt;List&lt;Endpoint&gt;&gt;</text></g><!--class GetSingleEndpointUseCase--><g id="elem_GetSingleEndpointUseCase"><rect codeLine="11" fill="#F1F1F1" height="68.9087" id="GetSingleEndpointUseCase" rx="2" ry="2" style="stroke:#181818;stroke-width:0.4000000000000001;" width="258.7655" x="673.016" y="351.3136"/><ellipse cx="727.4814" cy="364.1136" fill="#ADD1B2" rx="8.8" ry="8.8" style="stroke:#181818;stroke-width:0.8000000000000002;"/><path d="M727.0564,369.6511 Q725.6564,369.6511 724.7439,369.0636 Q723.8439,368.4636 723.3939,367.3886 Q722.9564,366.3011 722.9564,364.8636 Q722.9564,363.2386 723.4814,362.0761 Q724.0064,360.9136 725.0314,360.2886 Q726.0564,359.6636 727.5564,359.6636 Q728.2689,359.6636 728.8064,359.8136 Q729.3439,359.9511 729.8939,360.2261 L729.2439,361.8386 Q728.7439,361.5886 728.3064,361.4886 Q727.8814,361.3886 727.4939,361.3886 Q726.5564,361.3886 725.9939,361.8136 Q725.4314,362.2386 725.1939,363.0011 Q724.9564,363.7636 724.9564,364.7761 Q724.9564,366.3886 725.5314,367.1636 Q726.1064,367.9261 727.3814,367.9261 Q727.8564,367.9261 728.3564,367.8011 Q728.8564,367.6761 729.5189,367.3761 L729.5189,369.1511 Q728.9314,369.4011 728.2939,369.5261 Q727.6689,369.6511 727.0564,369.6511 Z " fill="#000000"/><text fill="#000000" font-family="sans-serif" font-size="11.2" lengthAdjust="spacing" textLength="143.0346" x="743.8814" y="368.4592">GetSingleEndpointUseCase</text><line style="stroke:#181818;stroke-width:0.4000000000000001;" x1="673.816" x2="930.9815" y1="376.9136" y2="376.9136"/><rect fill="none" height="4.8" style="stroke:#C82930;stroke-width:0.8000000000000002;" width="4.8" x="679.416" y="386.5408"/><text fill="#000000" font-family="sans-serif" font-size="11.2" lengthAdjust="spacing" textLength="216.8312" x="689.016" y="392.0863">endpointRepository: EndpointRepository,</text><line style="stroke:#181818;stroke-width:0.4000000000000001;" x1="673.816" x2="930.9815" y1="398.5679" y2="398.5679"/><ellipse cx="681.816" cy="410.5951" fill="#84BE84" rx="2.4" ry="2.4" style="stroke:#038048;stroke-width:0.8000000000000002;"/><text fill="#000000" font-family="sans-serif" font-size="11.2" lengthAdjust="spacing" textLength="237.9655" x="689.016" y="413.7407">execute(idAsString: String): Result&lt;Endpoint&gt;</text></g><!--class UpdateEndpointUseCase--><g id="elem_UpdateEndpointUseCase"><rect codeLine="15" fill="#F1F1F1" height="68.9087" id="UpdateEndpointUseCase" rx="2" ry="2" style="stroke:#181818;stroke-width:0.4000000000000001;" width="268.6327" x="960.08" y="351.3136"/><ellipse cx="1025.4598" cy="364.1136" fill="#ADD1B2" rx="8.8" ry="8.8" style="stroke:#181818;stroke-width:0.8000000000000002;"/><path d="M1025.0348,369.6511 Q1023.6348,369.6511 1022.7223,369.0636 Q1021.8223,368.4636 1021.3723,367.3886 Q1020.9348,366.3011 1020.9348,364.8636 Q1020.9348,363.2386 1021.4598,362.0761 Q1021.9848,360.9136 1023.0098,360.2886 Q1024.0348,359.6636 1025.5348,359.6636 Q1026.2473,359.6636 1026.7848,359.8136 Q1027.3223,359.9511 1027.8723,360.2261 L1027.2223,361.8386 Q1026.7223,361.5886 1026.2848,361.4886 Q1025.8598,361.3886 1025.4723,361.3886 Q1024.5348,361.3886 1023.9723,361.8136 Q1023.4098,362.2386 1023.1723,363.0011 Q1022.9348,363.7636 1022.9348,364.7761 Q1022.9348,366.3886 1023.5098,367.1636 Q1024.0848,367.9261 1025.3598,367.9261 Q1025.8348,367.9261 1026.3348,367.8011 Q1026.8348,367.6761 1027.4973,367.3761 L1027.4973,369.1511 Q1026.9098,369.4011 1026.2723,369.5261 Q1025.6473,369.6511 1025.0348,369.6511 Z " fill="#000000"/><text fill="#000000" font-family="sans-serif" font-size="11.2" lengthAdjust="spacing" textLength="131.0731" x="1041.8598" y="368.4592">UpdateEndpointUseCase</text><line style="stroke:#181818;stroke-width:0.4000000000000001;" x1="960.88" x2="1227.9127" y1="376.9136" y2="376.9136"/><rect fill="none" height="4.8" style="stroke:#C82930;stroke-width:0.8000000000000002;" width="4.8" x="966.48" y="386.5408"/><text fill="#000000" font-family="sans-serif" font-size="11.2" lengthAdjust="spacing" textLength="216.8312" x="976.08" y="392.0863">endpointRepository: EndpointRepository,</text><line style="stroke:#181818;stroke-width:0.4000000000000001;" x1="960.88" x2="1227.9127" y1="398.5679" y2="398.5679"/><ellipse cx="968.88" cy="410.5951" fill="#84BE84" rx="2.4" ry="2.4" style="stroke:#038048;stroke-width:0.8000000000000002;"/><text fill="#000000" font-family="sans-serif" font-size="11.2" lengthAdjust="spacing" textLength="247.8327" x="976.08" y="413.7407">execute(endpoint: Endpoint): Result&lt;Endpoint&gt;</text></g><!--class DeleteEndpointUseCase--><g id="elem_DeleteEndpointUseCase"><rect codeLine="19" fill="#F1F1F1" height="68.9087" id="DeleteEndpointUseCase" rx="2" ry="2" style="stroke:#181818;stroke-width:0.4000000000000001;" width="237.6312" x="1256.384" y="351.3136"/><ellipse cx="1308.5366" cy="364.1136" fill="#ADD1B2" rx="8.8" ry="8.8" style="stroke:#181818;stroke-width:0.8000000000000002;"/><path d="M1308.1116,369.6511 Q1306.7116,369.6511 1305.7991,369.0636 Q1304.8991,368.4636 1304.4491,367.3886 Q1304.0116,366.3011 1304.0116,364.8636 Q1304.0116,363.2386 1304.5366,362.0761 Q1305.0616,360.9136 1306.0866,360.2886 Q1307.1116,359.6636 1308.6116,359.6636 Q1309.3241,359.6636 1309.8616,359.8136 Q1310.3991,359.9511 1310.9491,360.2261 L1310.2991,361.8386 Q1309.7991,361.5886 1309.3616,361.4886 Q1308.9366,361.3886 1308.5491,361.3886 Q1307.6116,361.3886 1307.0491,361.8136 Q1306.4866,362.2386 1306.2491,363.0011 Q1306.0116,363.7636 1306.0116,364.7761 Q1306.0116,366.3886 1306.5866,367.1636 Q1307.1616,367.9261 1308.4366,367.9261 Q1308.9116,367.9261 1309.4116,367.8011 Q1309.9116,367.6761 1310.5741,367.3761 L1310.5741,369.1511 Q1309.9866,369.4011 1309.3491,369.5261 Q1308.7241,369.6511 1308.1116,369.6511 Z " fill="#000000"/><text fill="#000000" font-family="sans-serif" font-size="11.2" lengthAdjust="spacing" textLength="126.5259" x="1324.9366" y="368.4592">DeleteEndpointUseCase</text><line style="stroke:#181818;stroke-width:0.4000000000000001;" x1="1257.184" x2="1493.2152" y1="376.9136" y2="376.9136"/><rect fill="none" height="4.8" style="stroke:#C82930;stroke-width:0.8000000000000002;" width="4.8" x="1262.784" y="386.5408"/><text fill="#000000" font-family="sans-serif" font-size="11.2" lengthAdjust="spacing" textLength="216.8312" x="1272.384" y="392.0863">endpointRepository: EndpointRepository,</text><line style="stroke:#181818;stroke-width:0.4000000000000001;" x1="1257.184" x2="1493.2152" y1="398.5679" y2="398.5679"/><ellipse cx="1265.184" cy="410.5951" fill="#84BE84" rx="2.4" ry="2.4" style="stroke:#038048;stroke-width:0.8000000000000002;"/><text fill="#000000" font-family="sans-serif" font-size="11.2" lengthAdjust="spacing" textLength="212.452" x="1272.384" y="413.7407">execute(idAsString: String): Result&lt;Unit&gt;</text></g><!--class Endpoint--><g id="elem_Endpoint"><rect codeLine="26" fill="#F1F1F1" height="129.926" id="Endpoint" rx="2" ry="2" style="stroke:#181818;stroke-width:0.4000000000000001;" width="211.7145" x="988.544" y="72.4816"/><ellipse cx="1067.2237" cy="85.2816" fill="#ADD1B2" rx="8.8" ry="8.8" style="stroke:#181818;stroke-width:0.8000000000000002;"/><path d="M1066.7987,90.8191 Q1065.3987,90.8191 1064.4862,90.2316 Q1063.5862,89.6316 1063.1362,88.5566 Q1062.6987,87.4691 1062.6987,86.0316 Q1062.6987,84.4066 1063.2237,83.2441 Q1063.7487,82.0816 1064.7737,81.4566 Q1065.7987,80.8316 1067.2987,80.8316 Q1068.0112,80.8316 1068.5487,80.9816 Q1069.0862,81.1191 1069.6362,81.3941 L1068.9862,83.0066 Q1068.4862,82.7566 1068.0487,82.6566 Q1067.6237,82.5566 1067.2362,82.5566 Q1066.2987,82.5566 1065.7362,82.9816 Q1065.1737,83.4066 1064.9362,84.1691 Q1064.6987,84.9316 1064.6987,85.9441 Q1064.6987,87.5566 1065.2737,88.3316 Q1065.8487,89.0941 1067.1237,89.0941 Q1067.5987,89.0941 1068.0987,88.9691 Q1068.5987,88.8441 1069.2612,88.5441 L1069.2612,90.3191 Q1068.6737,90.5691 1068.0362,90.6941 Q1067.4112,90.8191 1066.7987,90.8191 Z " fill="#000000"/><text fill="#000000" font-family="sans-serif" font-size="11.2" lengthAdjust="spacing" textLength="47.555" x="1083.6237" y="89.6272">Endpoint</text><line style="stroke:#181818;stroke-width:0.4000000000000001;" x1="989.344" x2="1199.4585" y1="98.0816" y2="98.0816"/><rect fill="none" height="4.8" style="stroke:#C82930;stroke-width:0.8000000000000002;" width="4.8" x="994.944" y="107.7088"/><text fill="#000000" font-family="sans-serif" font-size="11.2" lengthAdjust="spacing" textLength="26.3759" x="1004.544" y="113.2543">id: Id</text><rect fill="none" height="4.8" style="stroke:#C82930;stroke-width:0.8000000000000002;" width="4.8" x="994.944" y="122.9631"/><text fill="#000000" font-family="sans-serif" font-size="11.2" lengthAdjust="spacing" textLength="94.1021" x="1004.544" y="128.5087">protocol: Protocol</text><rect fill="none" height="4.8" style="stroke:#C82930;stroke-width:0.8000000000000002;" width="4.8" x="994.944" y="138.2174"/><text fill="#000000" font-family="sans-serif" font-size="11.2" lengthAdjust="spacing" textLength="119.2459" x="1004.544" y="143.763">domain: DomainName</text><rect fill="none" height="4.8" style="stroke:#C82930;stroke-width:0.8000000000000002;" width="4.8" x="994.944" y="153.4718"/><text fill="#000000" font-family="sans-serif" font-size="11.2" lengthAdjust="spacing" textLength="50.467" x="1004.544" y="159.0173">port: Port</text><rect fill="none" height="4.8" style="stroke:#C82930;stroke-width:0.8000000000000002;" width="4.8" x="994.944" y="168.7261"/><text fill="#000000" font-family="sans-serif" font-size="11.2" lengthAdjust="spacing" textLength="54.0734" x="1004.544" y="174.2717">path: Path</text><rect fill="none" height="4.8" style="stroke:#C82930;stroke-width:0.8000000000000002;" width="4.8" x="994.944" y="183.9804"/><text fill="#000000" font-family="sans-serif" font-size="11.2" lengthAdjust="spacing" textLength="190.9145" x="1004.544" y="189.526">queryParameters: QueryParameters</text><line style="stroke:#181818;stroke-width:0.4000000000000001;" x1="989.344" x2="1199.4585" y1="196.0076" y2="196.0076"/></g><!--class EndpointRepository--><g id="elem_EndpointRepository"><rect codeLine="37" fill="#F1F1F1" height="99.4173" id="EndpointRepository" rx="2" ry="2" style="stroke:#181818;stroke-width:0.4000000000000001;" width="456.5457" x="1244.528" y="87.7376"/><ellipse cx="1420.9778" cy="100.5376" fill="#B4A7E5" rx="8.8" ry="8.8" style="stroke:#181818;stroke-width:0.8000000000000002;"/><path d="M1417.8028,105.7376 L1417.8028,104.3751 L1419.6903,104.1626 L1419.6903,97.6001 L1417.8028,97.3876 L1417.8028,96.0251 L1423.5153,96.0251 L1423.5153,97.3876 L1421.5778,97.6001 L1421.5778,104.1626 L1423.5153,104.3751 L1423.5153,105.7376 L1417.8028,105.7376 Z " fill="#000000"/><text fill="#000000" font-family="sans-serif" font-size="11.2" font-style="italic" lengthAdjust="spacing" textLength="96.846" x="1437.3778" y="104.8832">EndpointRepository</text><line style="stroke:#181818;stroke-width:0.4000000000000001;" x1="1245.328" x2="1700.2737" y1="113.3376" y2="113.3376"/><line style="stroke:#181818;stroke-width:0.4000000000000001;" x1="1245.328" x2="1700.2737" y1="119.7376" y2="119.7376"/><ellipse cx="1253.328" cy="131.7648" fill="#84BE84" rx="2.4" ry="2.4" style="stroke:#038048;stroke-width:0.8000000000000002;"/><text fill="#000000" font-family="sans-serif" font-size="11.2" lengthAdjust="spacing" textLength="156.2282" x="1260.528" y="134.9103">getEndpoint(id: Id): Endpoint?</text><ellipse cx="1253.328" cy="147.0191" fill="#84BE84" rx="2.4" ry="2.4" style="stroke:#038048;stroke-width:0.8000000000000002;"/><text fill="#000000" font-family="sans-serif" font-size="11.2" lengthAdjust="spacing" textLength="241.8183" x="1260.528" y="150.1647">createEndpoint(endpoint: Endpoint): Endpoint</text><ellipse cx="1253.328" cy="162.2734" fill="#84BE84" rx="2.4" ry="2.4" style="stroke:#038048;stroke-width:0.8000000000000002;"/><text fill="#000000" font-family="sans-serif" font-size="11.2" lengthAdjust="spacing" textLength="435.7457" x="1260.528" y="165.419">updateEndpoint(idOfEndpointToUpdate: Id, endpointUpdated: Endpoint): Endpoint</text><ellipse cx="1253.328" cy="177.5278" fill="#84BE84" rx="2.4" ry="2.4" style="stroke:#038048;stroke-width:0.8000000000000002;"/><text fill="#000000" font-family="sans-serif" font-size="11.2" lengthAdjust="spacing" textLength="113.422" x="1260.528" y="180.6733">deleteEndpoint(id: Id)</text></g><!--class Logger--><g id="elem_Logger"><rect codeLine="46" fill="#F1F1F1" height="99.4173" id="Logger" rx="2" ry="2" style="stroke:#181818;stroke-width:0.4000000000000001;" width="145.8587" x="1745.472" y="87.7376"/><ellipse cx="1797.6638" cy="100.5376" fill="#B4A7E5" rx="8.8" ry="8.8" style="stroke:#181818;stroke-width:0.8000000000000002;"/><path d="M1794.4888,105.7376 L1794.4888,104.3751 L1796.3763,104.1626 L1796.3763,97.6001 L1794.4888,97.3876 L1794.4888,96.0251 L1800.2013,96.0251 L1800.2013,97.3876 L1798.2638,97.6001 L1798.2638,104.1626 L1800.2013,104.3751 L1800.2013,105.7376 L1794.4888,105.7376 Z " fill="#000000"/><text fill="#000000" font-family="sans-serif" font-size="11.2" font-style="italic" lengthAdjust="spacing" textLength="34.6751" x="1814.0638" y="104.8832">Logger</text><line style="stroke:#181818;stroke-width:0.4000000000000001;" x1="1746.272" x2="1890.5307" y1="113.3376" y2="113.3376"/><line style="stroke:#181818;stroke-width:0.4000000000000001;" x1="1746.272" x2="1890.5307" y1="119.7376" y2="119.7376"/><ellipse cx="1754.272" cy="131.7648" fill="#84BE84" rx="2.4" ry="2.4" style="stroke:#038048;stroke-width:0.8000000000000002;"/><text fill="#000000" font-family="sans-serif" font-size="11.2" lengthAdjust="spacing" textLength="111.5964" x="1761.472" y="134.9103">info(message: String)</text><ellipse cx="1754.272" cy="147.0191" fill="#84BE84" rx="2.4" ry="2.4" style="stroke:#038048;stroke-width:0.8000000000000002;"/><text fill="#000000" font-family="sans-serif" font-size="11.2" lengthAdjust="spacing" textLength="125.0587" x="1761.472" y="150.1647">debug(message: String)</text><ellipse cx="1754.272" cy="162.2734" fill="#84BE84" rx="2.4" ry="2.4" style="stroke:#038048;stroke-width:0.8000000000000002;"/><text fill="#000000" font-family="sans-serif" font-size="11.2" lengthAdjust="spacing" textLength="117.79" x="1761.472" y="165.419">warn(message: String)</text><ellipse cx="1754.272" cy="177.5278" fill="#84BE84" rx="2.4" ry="2.4" style="stroke:#038048;stroke-width:0.8000000000000002;"/><text fill="#000000" font-family="sans-serif" font-size="11.2" lengthAdjust="spacing" textLength="118.126" x="1761.472" y="180.6733">error(message: String)</text></g><!--class EndpointsController--><g id="elem_EndpointsController"><rect codeLine="56" fill="#F1F1F1" height="129.926" id="EndpointsController" rx="2" ry="2" style="stroke:#181818;stroke-width:0.4000000000000001;" width="243.2423" x="972.776" y="569.1376"/><ellipse cx="1038.0662" cy="581.9376" fill="#ADD1B2" rx="8.8" ry="8.8" style="stroke:#181818;stroke-width:0.8000000000000002;"/><path d="M1037.6412,587.4751 Q1036.2412,587.4751 1035.3287,586.8876 Q1034.4287,586.2876 1033.9787,585.2126 Q1033.5412,584.1251 1033.5412,582.6876 Q1033.5412,581.0626 1034.0662,579.9001 Q1034.5912,578.7376 1035.6162,578.1126 Q1036.6412,577.4876 1038.1412,577.4876 Q1038.8537,577.4876 1039.3912,577.6376 Q1039.9287,577.7751 1040.4787,578.0501 L1039.8287,579.6626 Q1039.3287,579.4126 1038.8912,579.3126 Q1038.4662,579.2126 1038.0787,579.2126 Q1037.1412,579.2126 1036.5787,579.6376 Q1036.0162,580.0626 1035.7787,580.8251 Q1035.5412,581.5876 1035.5412,582.6001 Q1035.5412,584.2126 1036.1162,584.9876 Q1036.6912,585.7501 1037.9662,585.7501 Q1038.4412,585.7501 1038.9412,585.6251 Q1039.4412,585.5001 1040.1037,585.2001 L1040.1037,586.9751 Q1039.5162,587.2251 1038.8787,587.3501 Q1038.2537,587.4751 1037.6412,587.4751 Z " fill="#000000"/><text fill="#000000" font-family="sans-serif" font-size="11.2" lengthAdjust="spacing" textLength="105.862" x="1054.4662" y="586.2832">EndpointsController</text><line style="stroke:#181818;stroke-width:0.4000000000000001;" x1="973.576" x2="1215.2183" y1="594.7376" y2="594.7376"/><line style="stroke:#181818;stroke-width:0.4000000000000001;" x1="973.576" x2="1215.2183" y1="601.1376" y2="601.1376"/><ellipse cx="981.576" cy="613.1648" fill="#84BE84" rx="2.4" ry="2.4" style="stroke:#038048;stroke-width:0.8000000000000002;"/><text fill="#000000" font-family="sans-serif" font-size="11.2" lengthAdjust="spacing" textLength="34.0815" x="988.776" y="616.3103">start(),</text><rect fill="#F24D5C" height="4.8" style="stroke:#C82930;stroke-width:0.8000000000000002;" width="4.8" x="979.176" y="626.0191"/><text fill="#000000" font-family="sans-serif" font-size="11.2" lengthAdjust="spacing" textLength="207.7144" x="988.776" y="631.5647">getEndpoints(context: RoutingContext),</text><rect fill="#F24D5C" height="4.8" style="stroke:#C82930;stroke-width:0.8000000000000002;" width="4.8" x="979.176" y="641.2734"/><text fill="#000000" font-family="sans-serif" font-size="11.2" lengthAdjust="spacing" textLength="202.3496" x="988.776" y="646.819">getEndpoint(context: RoutingContext),</text><rect fill="#F24D5C" height="4.8" style="stroke:#C82930;stroke-width:0.8000000000000002;" width="4.8" x="979.176" y="656.5278"/><text fill="#000000" font-family="sans-serif" font-size="11.2" lengthAdjust="spacing" textLength="218.0632" x="988.776" y="662.0733">createEndpoint(context: RoutingContext),</text><rect fill="#F24D5C" height="4.8" style="stroke:#C82930;stroke-width:0.8000000000000002;" width="4.8" x="979.176" y="671.7821"/><text fill="#000000" font-family="sans-serif" font-size="11.2" lengthAdjust="spacing" textLength="222.4423" x="988.776" y="677.3277">updateEndpoint(context: RoutingContext),</text><rect fill="#F24D5C" height="4.8" style="stroke:#C82930;stroke-width:0.8000000000000002;" width="4.8" x="979.176" y="687.0364"/><text fill="#000000" font-family="sans-serif" font-size="11.2" lengthAdjust="spacing" textLength="217.8728" x="988.776" y="692.582">deleteEndpoint(context: RoutingContext),</text></g><!--class EndpointMapper--><g id="elem_EndpointMapper"><rect codeLine="73" fill="#F1F1F1" height="99.4173" id="EndpointMapper" rx="2" ry="2" style="stroke:#181818;stroke-width:0.4000000000000001;" width="396.5923" x="1382.504" y="584.3856"/><ellipse cx="1533.0427" cy="597.1856" fill="#ADD1B2" rx="8.8" ry="8.8" style="stroke:#181818;stroke-width:0.8000000000000002;"/><path d="M1532.6177,602.7231 Q1531.2177,602.7231 1530.3052,602.1356 Q1529.4052,601.5356 1528.9552,600.4606 Q1528.5177,599.3731 1528.5177,597.9356 Q1528.5177,596.3106 1529.0427,595.1481 Q1529.5677,593.9856 1530.5927,593.3606 Q1531.6177,592.7356 1533.1177,592.7356 Q1533.8302,592.7356 1534.3677,592.8856 Q1534.9052,593.0231 1535.4552,593.2981 L1534.8052,594.9106 Q1534.3052,594.6606 1533.8677,594.5606 Q1533.4427,594.4606 1533.0552,594.4606 Q1532.1177,594.4606 1531.5552,594.8856 Q1530.9927,595.3106 1530.7552,596.0731 Q1530.5177,596.8356 1530.5177,597.8481 Q1530.5177,599.4606 1531.0927,600.2356 Q1531.6677,600.9981 1532.9427,600.9981 Q1533.4177,600.9981 1533.9177,600.8731 Q1534.4177,600.7481 1535.0802,600.4481 L1535.0802,602.2231 Q1534.4927,602.4731 1533.8552,602.5981 Q1533.2302,602.7231 1532.6177,602.7231 Z " fill="#000000"/><text fill="#000000" font-family="sans-serif" font-size="11.2" lengthAdjust="spacing" textLength="88.7149" x="1549.4427" y="601.5312">EndpointMapper</text><line style="stroke:#181818;stroke-width:0.4000000000000001;" x1="1383.304" x2="1778.2963" y1="609.9856" y2="609.9856"/><line style="stroke:#181818;stroke-width:0.4000000000000001;" x1="1383.304" x2="1778.2963" y1="616.3856" y2="616.3856"/><ellipse cx="1391.304" cy="628.4128" fill="#84BE84" rx="2.4" ry="2.4" style="stroke:#038048;stroke-width:0.8000000000000002;"/><text fill="#000000" font-family="sans-serif" font-size="11.2" lengthAdjust="spacing" textLength="367.9075" x="1398.504" y="631.5583">dtoToBusiness(endpointCreateInput: EndpointCreateInput): Endpoint,</text><ellipse cx="1391.304" cy="643.6671" fill="#84BE84" rx="2.4" ry="2.4" style="stroke:#038048;stroke-width:0.8000000000000002;"/><text fill="#000000" font-family="sans-serif" font-size="11.2" lengthAdjust="spacing" textLength="375.7923" x="1398.504" y="646.8127">dtoToBusiness(endpointUpdateInput: EndpointUpdateInput): Endpoint,</text><ellipse cx="1391.304" cy="658.9214" fill="#84BE84" rx="2.4" ry="2.4" style="stroke:#038048;stroke-width:0.8000000000000002;"/><text fill="#000000" font-family="sans-serif" font-size="11.2" lengthAdjust="spacing" textLength="347.2211" x="1398.504" y="662.067">businessToDto(endpoints: List&lt;Endpoint&gt;): List&lt;EndpointOutput&gt;,</text><ellipse cx="1391.304" cy="674.1758" fill="#84BE84" rx="2.4" ry="2.4" style="stroke:#038048;stroke-width:0.8000000000000002;"/><text fill="#000000" font-family="sans-serif" font-size="11.2" lengthAdjust="spacing" textLength="276.8966" x="1398.504" y="677.3213">businessToDto(endpoint: Endpoint): EndpointOutput</text></g><!--class EndpointsValidator--><g id="elem_EndpointsValidator"><rect codeLine="79" fill="#F1F1F1" height="84.163" id="EndpointsValidator" rx="2" ry="2" style="stroke:#181818;stroke-width:0.4000000000000001;" width="310.6661" x="634.264" y="592.0176"/><ellipse cx="736.0381" cy="604.8176" fill="#ADD1B2" rx="8.8" ry="8.8" style="stroke:#181818;stroke-width:0.8000000000000002;"/><path d="M735.6131,610.3551 Q734.2131,610.3551 733.3006,609.7676 Q732.4006,609.1676 731.9506,608.0926 Q731.5131,607.0051 731.5131,605.5676 Q731.5131,603.9426 732.0381,602.7801 Q732.5631,601.6176 733.5881,600.9926 Q734.6131,600.3676 736.1131,600.3676 Q736.8256,600.3676 737.3631,600.5176 Q737.9006,600.6551 738.4506,600.9301 L737.8006,602.5426 Q737.3006,602.2926 736.8631,602.1926 Q736.4381,602.0926 736.0506,602.0926 Q735.1131,602.0926 734.5506,602.5176 Q733.9881,602.9426 733.7506,603.7051 Q733.5131,604.4676 733.5131,605.4801 Q733.5131,607.0926 734.0881,607.8676 Q734.6631,608.6301 735.9381,608.6301 Q736.4131,608.6301 736.9131,608.5051 Q737.4131,608.3801 738.0756,608.0801 L738.0756,609.8551 Q737.4881,610.1051 736.8506,610.2301 Q736.2256,610.3551 735.6131,610.3551 Z " fill="#000000"/><text fill="#000000" font-family="sans-serif" font-size="11.2" lengthAdjust="spacing" textLength="100.318" x="752.4381" y="609.1632">EndpointsValidator</text><line style="stroke:#181818;stroke-width:0.4000000000000001;" x1="635.064" x2="944.1301" y1="617.6176" y2="617.6176"/><line style="stroke:#181818;stroke-width:0.4000000000000001;" x1="635.064" x2="944.1301" y1="624.0176" y2="624.0176"/><ellipse cx="643.064" cy="636.0448" fill="#84BE84" rx="2.4" ry="2.4" style="stroke:#038048;stroke-width:0.8000000000000002;"/><text fill="#000000" font-family="sans-serif" font-size="11.2" lengthAdjust="spacing" textLength="232.8023" x="650.264" y="639.1903">validate(input: EndpointCreateInput): String,</text><ellipse cx="643.064" cy="651.2991" fill="#84BE84" rx="2.4" ry="2.4" style="stroke:#038048;stroke-width:0.8000000000000002;"/><text fill="#000000" font-family="sans-serif" font-size="11.2" lengthAdjust="spacing" textLength="289.8661" x="650.264" y="654.4447">validate(id: String, input: EndpointUpdateInput): String,</text><ellipse cx="643.064" cy="666.5534" fill="#84BE84" rx="2.4" ry="2.4" style="stroke:#038048;stroke-width:0.8000000000000002;"/><text fill="#000000" font-family="sans-serif" font-size="11.2" lengthAdjust="spacing" textLength="284.8038" x="650.264" y="669.699">doesNotContainErrors(errorMessage: String): Boolean</text></g><!--class EndpointCreateInput--><g id="elem_EndpointCreateInput"><rect codeLine="84" fill="#F1F1F1" height="53.6543" id="EndpointCreateInput" rx="2" ry="2" style="stroke:#181818;stroke-width:0.4000000000000001;" width="136.39" x="943.008" y="754.6896"/><ellipse cx="955.008" cy="767.4896" fill="#ADD1B2" rx="8.8" ry="8.8" style="stroke:#181818;stroke-width:0.8000000000000002;"/><path d="M954.583,773.0271 Q953.183,773.0271 952.2705,772.4396 Q951.3705,771.8396 950.9205,770.7646 Q950.483,769.6771 950.483,768.2396 Q950.483,766.6146 951.008,765.4521 Q951.533,764.2896 952.558,763.6646 Q953.583,763.0396 955.083,763.0396 Q955.7955,763.0396 956.333,763.1896 Q956.8705,763.3271 957.4205,763.6021 L956.7705,765.2146 Q956.2705,764.9646 955.833,764.8646 Q955.408,764.7646 955.0205,764.7646 Q954.083,764.7646 953.5205,765.1896 Q952.958,765.6146 952.7205,766.3771 Q952.483,767.1396 952.483,768.1521 Q952.483,769.7646 953.058,770.5396 Q953.633,771.3021 954.908,771.3021 Q955.383,771.3021 955.883,771.1771 Q956.383,771.0521 957.0455,770.7521 L957.0455,772.5271 Q956.458,772.7771 955.8205,772.9021 Q955.1955,773.0271 954.583,773.0271 Z " fill="#000000"/><text fill="#000000" font-family="sans-serif" font-size="11.2" lengthAdjust="spacing" textLength="110.79" x="966.208" y="771.8352">EndpointCreateInput</text><line style="stroke:#181818;stroke-width:0.4000000000000001;" x1="943.808" x2="1078.598" y1="780.2896" y2="780.2896"/><ellipse cx="951.808" cy="792.3168" fill="none" rx="2.4" ry="2.4" style="stroke:#038048;stroke-width:0.8000000000000002;"/><text fill="#000000" font-family="sans-serif" font-size="11.2" lengthAdjust="spacing" textLength="51.867" x="959.008" y="795.4623">url: String</text><line style="stroke:#181818;stroke-width:0.4000000000000001;" x1="943.808" x2="1078.598" y1="801.9439" y2="801.9439"/></g><!--class EndpointUpdateInput--><g id="elem_EndpointUpdateInput"><rect codeLine="87" fill="#F1F1F1" height="68.9087" id="EndpointUpdateInput" rx="2" ry="2" style="stroke:#181818;stroke-width:0.4000000000000001;" width="140.3324" x="1107.432" y="747.0576"/><ellipse cx="1119.432" cy="759.8576" fill="#ADD1B2" rx="8.8" ry="8.8" style="stroke:#181818;stroke-width:0.8000000000000002;"/><path d="M1119.007,765.3951 Q1117.607,765.3951 1116.6945,764.8076 Q1115.7945,764.2076 1115.3445,763.1326 Q1114.907,762.0451 1114.907,760.6076 Q1114.907,758.9826 1115.432,757.8201 Q1115.957,756.6576 1116.982,756.0326 Q1118.007,755.4076 1119.507,755.4076 Q1120.2195,755.4076 1120.757,755.5576 Q1121.2945,755.6951 1121.8445,755.9701 L1121.1945,757.5826 Q1120.6945,757.3326 1120.257,757.2326 Q1119.832,757.1326 1119.4445,757.1326 Q1118.507,757.1326 1117.9445,757.5576 Q1117.382,757.9826 1117.1445,758.7451 Q1116.907,759.5076 1116.907,760.5201 Q1116.907,762.1326 1117.482,762.9076 Q1118.057,763.6701 1119.332,763.6701 Q1119.807,763.6701 1120.307,763.5451 Q1120.807,763.4201 1121.4695,763.1201 L1121.4695,764.8951 Q1120.882,765.1451 1120.2445,765.2701 Q1119.6195,765.3951 1119.007,765.3951 Z " fill="#000000"/><text fill="#000000" font-family="sans-serif" font-size="11.2" lengthAdjust="spacing" textLength="114.7324" x="1130.632" y="764.2032">EndpointUpdateInput</text><line style="stroke:#181818;stroke-width:0.4000000000000001;" x1="1108.232" x2="1246.9644" y1="772.6576" y2="772.6576"/><ellipse cx="1116.232" cy="784.6848" fill="none" rx="2.4" ry="2.4" style="stroke:#038048;stroke-width:0.8000000000000002;"/><text fill="#000000" font-family="sans-serif" font-size="11.2" lengthAdjust="spacing" textLength="50.2094" x="1123.432" y="787.8303">id: String,</text><ellipse cx="1116.232" cy="799.9391" fill="none" rx="2.4" ry="2.4" style="stroke:#038048;stroke-width:0.8000000000000002;"/><text fill="#000000" font-family="sans-serif" font-size="11.2" lengthAdjust="spacing" textLength="51.867" x="1123.432" y="803.0847">url: String</text><line style="stroke:#181818;stroke-width:0.4000000000000001;" x1="1108.232" x2="1246.9644" y1="809.5663" y2="809.5663"/></g><!--class EndpointOutput--><g id="elem_EndpointOutput"><rect codeLine="91" fill="#F1F1F1" height="68.9087" id="EndpointOutput" rx="2" ry="2" style="stroke:#181818;stroke-width:0.4000000000000001;" width="110.7197" x="1243.84" y="599.6416"/><ellipse cx="1255.84" cy="612.4416" fill="#ADD1B2" rx="8.8" ry="8.8" style="stroke:#181818;stroke-width:0.8000000000000002;"/><path d="M1255.415,617.9791 Q1254.015,617.9791 1253.1025,617.3916 Q1252.2025,616.7916 1251.7525,615.7166 Q1251.315,614.6291 1251.315,613.1916 Q1251.315,611.5666 1251.84,610.4041 Q1252.365,609.2416 1253.39,608.6166 Q1254.415,607.9916 1255.915,607.9916 Q1256.6275,607.9916 1257.165,608.1416 Q1257.7025,608.2791 1258.2525,608.5541 L1257.6025,610.1666 Q1257.1025,609.9166 1256.665,609.8166 Q1256.24,609.7166 1255.8525,609.7166 Q1254.915,609.7166 1254.3525,610.1416 Q1253.79,610.5666 1253.5525,611.3291 Q1253.315,612.0916 1253.315,613.1041 Q1253.315,614.7166 1253.89,615.4916 Q1254.465,616.2541 1255.74,616.2541 Q1256.215,616.2541 1256.715,616.1291 Q1257.215,616.0041 1257.8775,615.7041 L1257.8775,617.4791 Q1257.29,617.7291 1256.6525,617.8541 Q1256.0275,617.9791 1255.415,617.9791 Z " fill="#000000"/><text fill="#000000" font-family="sans-serif" font-size="11.2" lengthAdjust="spacing" textLength="85.1197" x="1267.04" y="616.7872">EndpointOutput</text><line style="stroke:#181818;stroke-width:0.4000000000000001;" x1="1244.64" x2="1353.7597" y1="625.2416" y2="625.2416"/><ellipse cx="1252.64" cy="637.2688" fill="none" rx="2.4" ry="2.4" style="stroke:#038048;stroke-width:0.8000000000000002;"/><text fill="#000000" font-family="sans-serif" font-size="11.2" lengthAdjust="spacing" textLength="50.2094" x="1259.84" y="640.4143">id: String,</text><ellipse cx="1252.64" cy="652.5231" fill="none" rx="2.4" ry="2.4" style="stroke:#038048;stroke-width:0.8000000000000002;"/><text fill="#000000" font-family="sans-serif" font-size="11.2" lengthAdjust="spacing" textLength="51.867" x="1259.84" y="655.6687">url: String</text><line style="stroke:#181818;stroke-width:0.4000000000000001;" x1="1244.64" x2="1353.7597" y1="662.1503" y2="662.1503"/></g><!--class main--><g id="elem_main"><rect codeLine="100" fill="#F1F1F1" height="38.4" id="main" rx="2" ry="2" style="stroke:#181818;stroke-width:0.4000000000000001;" width="52.1663" x="392.32" y="863.9696"/><ellipse cx="404.32" cy="876.7696" fill="#ADD1B2" rx="8.8" ry="8.8" style="stroke:#181818;stroke-width:0.8000000000000002;"/><path d="M403.895,882.3071 Q402.495,882.3071 401.5825,881.7196 Q400.6825,881.1196 400.2325,880.0446 Q399.795,878.9571 399.795,877.5196 Q399.795,875.8946 400.32,874.7321 Q400.845,873.5696 401.87,872.9446 Q402.895,872.3196 404.395,872.3196 Q405.1075,872.3196 405.645,872.4696 Q406.1825,872.6071 406.7325,872.8821 L406.0825,874.4946 Q405.5825,874.2446 405.145,874.1446 Q404.72,874.0446 404.3325,874.0446 Q403.395,874.0446 402.8325,874.4696 Q402.27,874.8946 402.0325,875.6571 Q401.795,876.4196 401.795,877.4321 Q401.795,879.0446 402.37,879.8196 Q402.945,880.5821 404.22,880.5821 Q404.695,880.5821 405.195,880.4571 Q405.695,880.3321 406.3575,880.0321 L406.3575,881.8071 Q405.77,882.0571 405.1325,882.1821 Q404.5075,882.3071 403.895,882.3071 Z " fill="#000000"/><text fill="#000000" font-family="sans-serif" font-size="11.2" lengthAdjust="spacing" textLength="26.5663" x="415.52" y="881.1152">main</text><line style="stroke:#181818;stroke-width:0.4000000000000001;" x1="393.12" x2="443.6863" y1="889.5696" y2="889.5696"/><line style="stroke:#181818;stroke-width:0.4000000000000001;" x1="393.12" x2="443.6863" y1="895.9696" y2="895.9696"/></g><!--class ApplicationDepencyInjector--><g id="elem_ApplicationDepencyInjector"><rect codeLine="101" fill="#F1F1F1" height="53.6543" id="ApplicationDepencyInjector" rx="2" ry="2" style="stroke:#181818;stroke-width:0.4000000000000001;" width="265.3623" x="285.72" y="754.6896"/><ellipse cx="342.2742" cy="767.4896" fill="#ADD1B2" rx="8.8" ry="8.8" style="stroke:#181818;stroke-width:0.8000000000000002;"/><path d="M341.8492,773.0271 Q340.4492,773.0271 339.5367,772.4396 Q338.6367,771.8396 338.1867,770.7646 Q337.7492,769.6771 337.7492,768.2396 Q337.7492,766.6146 338.2742,765.4521 Q338.7992,764.2896 339.8242,763.6646 Q340.8492,763.0396 342.3492,763.0396 Q343.0617,763.0396 343.5992,763.1896 Q344.1367,763.3271 344.6867,763.6021 L344.0367,765.2146 Q343.5367,764.9646 343.0992,764.8646 Q342.6742,764.7646 342.2867,764.7646 Q341.3492,764.7646 340.7867,765.1896 Q340.2242,765.6146 339.9867,766.3771 Q339.7492,767.1396 339.7492,768.1521 Q339.7492,769.7646 340.3242,770.5396 Q340.8992,771.3021 342.1742,771.3021 Q342.6492,771.3021 343.1492,771.1771 Q343.6492,771.0521 344.3117,770.7521 L344.3117,772.5271 Q343.7242,772.7771 343.0867,772.9021 Q342.4617,773.0271 341.8492,773.0271 Z " fill="#000000"/><text fill="#000000" font-family="sans-serif" font-size="11.2" lengthAdjust="spacing" textLength="145.4538" x="358.6742" y="771.8352">ApplicationDepencyInjector</text><line style="stroke:#181818;stroke-width:0.4000000000000001;" x1="286.52" x2="550.2823" y1="780.2896" y2="780.2896"/><line style="stroke:#181818;stroke-width:0.4000000000000001;" x1="286.52" x2="550.2823" y1="786.6896" y2="786.6896"/><ellipse cx="294.52" cy="798.7168" fill="#84BE84" rx="2.4" ry="2.4" style="stroke:#038048;stroke-width:0.8000000000000002;"/><text fill="#000000" font-family="sans-serif" font-size="11.2" lengthAdjust="spacing" textLength="244.5623" x="301.72" y="801.8623">startApplication(startArguments: List&lt;String&gt;),</text></g><!--class PropertyProvider--><g id="elem_PropertyProvider"><rect codeLine="116" fill="#F1F1F1" height="53.6543" id="PropertyProvider" rx="2" ry="2" style="stroke:#181818;stroke-width:0.4000000000000001;" width="137.638" x="103.984" y="607.2736"/><ellipse cx="128.4399" cy="620.0736" fill="#B4A7E5" rx="8.8" ry="8.8" style="stroke:#181818;stroke-width:0.8000000000000002;"/><path d="M125.2649,625.2736 L125.2649,623.9111 L127.1524,623.6986 L127.1524,617.1361 L125.2649,616.9236 L125.2649,615.5611 L130.9774,615.5611 L130.9774,616.9236 L129.0399,617.1361 L129.0399,623.6986 L130.9774,623.9111 L130.9774,625.2736 L125.2649,625.2736 Z " fill="#000000"/><text fill="#000000" font-family="sans-serif" font-size="11.2" font-style="italic" lengthAdjust="spacing" textLength="84.3581" x="142.4079" y="624.4192">PropertyProvider</text><line style="stroke:#181818;stroke-width:0.4000000000000001;" x1="104.784" x2="240.822" y1="632.8736" y2="632.8736"/><line style="stroke:#181818;stroke-width:0.4000000000000001;" x1="104.784" x2="240.822" y1="639.2736" y2="639.2736"/><ellipse cx="112.784" cy="651.3008" fill="#84BE84" rx="2.4" ry="2.4" style="stroke:#038048;stroke-width:0.8000000000000002;"/><text fill="#000000" font-family="sans-serif" font-size="11.2" lengthAdjust="spacing" textLength="116.838" x="119.984" y="654.4463">get(key: String): String</text></g><!--class ApplicationPropertiesFileProvider--><g id="elem_ApplicationPropertiesFileProvider"><rect codeLine="119" fill="#F1F1F1" height="53.6543" id="ApplicationPropertiesFileProvider" rx="2" ry="2" style="stroke:#181818;stroke-width:0.4000000000000001;" width="201.7193" x="55.944" y="754.6896"/><ellipse cx="67.944" cy="767.4896" fill="#ADD1B2" rx="8.8" ry="8.8" style="stroke:#181818;stroke-width:0.8000000000000002;"/><path d="M67.519,773.0271 Q66.119,773.0271 65.2065,772.4396 Q64.3065,771.8396 63.8565,770.7646 Q63.419,769.6771 63.419,768.2396 Q63.419,766.6146 63.944,765.4521 Q64.469,764.2896 65.494,763.6646 Q66.519,763.0396 68.019,763.0396 Q68.7315,763.0396 69.269,763.1896 Q69.8065,763.3271 70.3565,763.6021 L69.7065,765.2146 Q69.2065,764.9646 68.769,764.8646 Q68.344,764.7646 67.9565,764.7646 Q67.019,764.7646 66.4565,765.1896 Q65.894,765.6146 65.6565,766.3771 Q65.419,767.1396 65.419,768.1521 Q65.419,769.7646 65.994,770.5396 Q66.569,771.3021 67.844,771.3021 Q68.319,771.3021 68.819,771.1771 Q69.319,771.0521 69.9815,770.7521 L69.9815,772.5271 Q69.394,772.7771 68.7565,772.9021 Q68.1315,773.0271 67.519,773.0271 Z " fill="#000000"/><text fill="#000000" font-family="sans-serif" font-size="11.2" lengthAdjust="spacing" textLength="176.1193" x="79.144" y="771.8352">ApplicationPropertiesFileProvider</text><line style="stroke:#181818;stroke-width:0.4000000000000001;" x1="56.744" x2="256.8633" y1="780.2896" y2="780.2896"/><line style="stroke:#181818;stroke-width:0.4000000000000001;" x1="56.744" x2="256.8633" y1="786.6896" y2="786.6896"/><ellipse cx="64.744" cy="798.7168" fill="#84BE84" rx="2.4" ry="2.4" style="stroke:#038048;stroke-width:0.8000000000000002;"/><text fill="#000000" font-family="sans-serif" font-size="11.2" lengthAdjust="spacing" textLength="116.838" x="71.944" y="801.8623">get(key: String): String</text></g><!--class MockEndpointRepository--><g id="elem_MockEndpointRepository"><rect codeLine="128" fill="#F1F1F1" height="99.4173" id="MockEndpointRepository" rx="2" ry="2" style="stroke:#181818;stroke-width:0.4000000000000001;" width="456.5457" x="1873.328" y="336.0656"/><ellipse cx="2032.0987" cy="348.8656" fill="#ADD1B2" rx="8.8" ry="8.8" style="stroke:#181818;stroke-width:0.8000000000000002;"/><path d="M2031.6737,354.4031 Q2030.2737,354.4031 2029.3612,353.8156 Q2028.4612,353.2156 2028.0112,352.1406 Q2027.5737,351.0531 2027.5737,349.6156 Q2027.5737,347.9906 2028.0987,346.8281 Q2028.6237,345.6656 2029.6487,345.0406 Q2030.6737,344.4156 2032.1737,344.4156 Q2032.8862,344.4156 2033.4237,344.5656 Q2033.9612,344.7031 2034.5112,344.9781 L2033.8612,346.5906 Q2033.3612,346.3406 2032.9237,346.2406 Q2032.4987,346.1406 2032.1112,346.1406 Q2031.1737,346.1406 2030.6112,346.5656 Q2030.0487,346.9906 2029.8112,347.7531 Q2029.5737,348.5156 2029.5737,349.5281 Q2029.5737,351.1406 2030.1487,351.9156 Q2030.7237,352.6781 2031.9987,352.6781 Q2032.4737,352.6781 2032.9737,352.5531 Q2033.4737,352.4281 2034.1362,352.1281 L2034.1362,353.9031 Q2033.5487,354.1531 2032.9112,354.2781 Q2032.2862,354.4031 2031.6737,354.4031 Z " fill="#000000"/><text fill="#000000" font-family="sans-serif" font-size="11.2" lengthAdjust="spacing" textLength="132.2043" x="2048.4987" y="353.2112">MockEndpointRepository</text><line style="stroke:#181818;stroke-width:0.4000000000000001;" x1="1874.128" x2="2329.0737" y1="361.6656" y2="361.6656"/><line style="stroke:#181818;stroke-width:0.4000000000000001;" x1="1874.128" x2="2329.0737" y1="368.0656" y2="368.0656"/><ellipse cx="1882.128" cy="380.0928" fill="#84BE84" rx="2.4" ry="2.4" style="stroke:#038048;stroke-width:0.8000000000000002;"/><text fill="#000000" font-family="sans-serif" font-size="11.2" lengthAdjust="spacing" textLength="156.2282" x="1889.328" y="383.2383">getEndpoint(id: Id): Endpoint?</text><ellipse cx="1882.128" cy="395.3471" fill="#84BE84" rx="2.4" ry="2.4" style="stroke:#038048;stroke-width:0.8000000000000002;"/><text fill="#000000" font-family="sans-serif" font-size="11.2" lengthAdjust="spacing" textLength="241.8183" x="1889.328" y="398.4927">createEndpoint(endpoint: Endpoint): Endpoint</text><ellipse cx="1882.128" cy="410.6014" fill="#84BE84" rx="2.4" ry="2.4" style="stroke:#038048;stroke-width:0.8000000000000002;"/><text fill="#000000" font-family="sans-serif" font-size="11.2" lengthAdjust="spacing" textLength="435.7457" x="1889.328" y="413.747">updateEndpoint(idOfEndpointToUpdate: Id, endpointUpdated: Endpoint): Endpoint</text><ellipse cx="1882.128" cy="425.8558" fill="#84BE84" rx="2.4" ry="2.4" style="stroke:#038048;stroke-width:0.8000000000000002;"/><text fill="#000000" font-family="sans-serif" font-size="11.2" lengthAdjust="spacing" textLength="113.422" x="1889.328" y="429.0013">deleteEndpoint(id: Id)</text></g><!--class SqliteRepository--><g id="elem_SqliteRepository"><rect codeLine="134" fill="#F1F1F1" height="129.926" id="SqliteRepository" rx="2" ry="2" style="stroke:#181818;stroke-width:0.4000000000000001;" width="456.5457" x="2358.128" y="320.8096"/><ellipse cx="2540.2338" cy="333.6096" fill="#ADD1B2" rx="8.8" ry="8.8" style="stroke:#181818;stroke-width:0.8000000000000002;"/><path d="M2539.8088,339.1471 Q2538.4088,339.1471 2537.4963,338.5596 Q2536.5963,337.9596 2536.1463,336.8846 Q2535.7088,335.7971 2535.7088,334.3596 Q2535.7088,332.7346 2536.2338,331.5721 Q2536.7588,330.4096 2537.7838,329.7846 Q2538.8088,329.1596 2540.3088,329.1596 Q2541.0213,329.1596 2541.5588,329.3096 Q2542.0963,329.4471 2542.6463,329.7221 L2541.9963,331.3346 Q2541.4963,331.0846 2541.0588,330.9846 Q2540.6338,330.8846 2540.2463,330.8846 Q2539.3088,330.8846 2538.7463,331.3096 Q2538.1838,331.7346 2537.9463,332.4971 Q2537.7088,333.2596 2537.7088,334.2721 Q2537.7088,335.8846 2538.2838,336.6596 Q2538.8588,337.4221 2540.1338,337.4221 Q2540.6088,337.4221 2541.1088,337.2971 Q2541.6088,337.1721 2542.2713,336.8721 L2542.2713,338.6471 Q2541.6838,338.8971 2541.0463,339.0221 Q2540.4213,339.1471 2539.8088,339.1471 Z " fill="#000000"/><text fill="#000000" font-family="sans-serif" font-size="11.2" lengthAdjust="spacing" textLength="85.5341" x="2556.6338" y="337.9552">SqliteRepository</text><line style="stroke:#181818;stroke-width:0.4000000000000001;" x1="2358.928" x2="2813.8737" y1="346.4096" y2="346.4096"/><line style="stroke:#181818;stroke-width:0.4000000000000001;" x1="2358.928" x2="2813.8737" y1="352.8096" y2="352.8096"/><ellipse cx="2366.928" cy="364.8368" fill="#84BE84" rx="2.4" ry="2.4" style="stroke:#038048;stroke-width:0.8000000000000002;"/><text fill="#000000" font-family="sans-serif" font-size="11.2" lengthAdjust="spacing" textLength="48.451" x="2374.128" y="367.9823">connect()</text><ellipse cx="2366.928" cy="380.0911" fill="#84BE84" rx="2.4" ry="2.4" style="stroke:#038048;stroke-width:0.8000000000000002;"/><text fill="#000000" font-family="sans-serif" font-size="11.2" lengthAdjust="spacing" textLength="63.5933" x="2374.128" y="383.2367">disconnect()</text><ellipse cx="2366.928" cy="395.3454" fill="#84BE84" rx="2.4" ry="2.4" style="stroke:#038048;stroke-width:0.8000000000000002;"/><text fill="#000000" font-family="sans-serif" font-size="11.2" lengthAdjust="spacing" textLength="156.2282" x="2374.128" y="398.491">getEndpoint(id: Id): Endpoint?</text><ellipse cx="2366.928" cy="410.5998" fill="#84BE84" rx="2.4" ry="2.4" style="stroke:#038048;stroke-width:0.8000000000000002;"/><text fill="#000000" font-family="sans-serif" font-size="11.2" lengthAdjust="spacing" textLength="241.8183" x="2374.128" y="413.7453">createEndpoint(endpoint: Endpoint): Endpoint</text><ellipse cx="2366.928" cy="425.8541" fill="#84BE84" rx="2.4" ry="2.4" style="stroke:#038048;stroke-width:0.8000000000000002;"/><text fill="#000000" font-family="sans-serif" font-size="11.2" lengthAdjust="spacing" textLength="435.7457" x="2374.128" y="428.9997">updateEndpoint(idOfEndpointToUpdate: Id, endpointUpdated: Endpoint): Endpoint</text><ellipse cx="2366.928" cy="441.1084" fill="#84BE84" rx="2.4" ry="2.4" style="stroke:#038048;stroke-width:0.8000000000000002;"/><text fill="#000000" font-family="sans-serif" font-size="11.2" lengthAdjust="spacing" textLength="113.422" x="2374.128" y="444.254">deleteEndpoint(id: Id)</text></g><!--class SLF4JLogger--><g id="elem_SLF4JLogger"><rect codeLine="146" fill="#F1F1F1" height="99.4173" id="SLF4JLogger" rx="2" ry="2" style="stroke:#181818;stroke-width:0.4000000000000001;" width="145.8587" x="2878.272" y="336.0656"/><ellipse cx="2915.4727" cy="348.8656" fill="#ADD1B2" rx="8.8" ry="8.8" style="stroke:#181818;stroke-width:0.8000000000000002;"/><path d="M2915.0477,354.4031 Q2913.6477,354.4031 2912.7352,353.8156 Q2911.8352,353.2156 2911.3852,352.1406 Q2910.9477,351.0531 2910.9477,349.6156 Q2910.9477,347.9906 2911.4727,346.8281 Q2911.9977,345.6656 2913.0227,345.0406 Q2914.0477,344.4156 2915.5477,344.4156 Q2916.2602,344.4156 2916.7977,344.5656 Q2917.3352,344.7031 2917.8852,344.9781 L2917.2352,346.5906 Q2916.7352,346.3406 2916.2977,346.2406 Q2915.8727,346.1406 2915.4852,346.1406 Q2914.5477,346.1406 2913.9852,346.5656 Q2913.4227,346.9906 2913.1852,347.7531 Q2912.9477,348.5156 2912.9477,349.5281 Q2912.9477,351.1406 2913.5227,351.9156 Q2914.0977,352.6781 2915.3727,352.6781 Q2915.8477,352.6781 2916.3477,352.5531 Q2916.8477,352.4281 2917.5102,352.1281 L2917.5102,353.9031 Q2916.9227,354.1531 2916.2852,354.2781 Q2915.6602,354.4031 2915.0477,354.4031 Z " fill="#000000"/><text fill="#000000" font-family="sans-serif" font-size="11.2" lengthAdjust="spacing" textLength="64.6574" x="2931.8727" y="353.2112">SLF4JLogger</text><line style="stroke:#181818;stroke-width:0.4000000000000001;" x1="2879.072" x2="3023.3307" y1="361.6656" y2="361.6656"/><line style="stroke:#181818;stroke-width:0.4000000000000001;" x1="2879.072" x2="3023.3307" y1="368.0656" y2="368.0656"/><ellipse cx="2887.072" cy="380.0928" fill="#84BE84" rx="2.4" ry="2.4" style="stroke:#038048;stroke-width:0.8000000000000002;"/><text fill="#000000" font-family="sans-serif" font-size="11.2" lengthAdjust="spacing" textLength="111.5964" x="2894.272" y="383.2383">info(message: String)</text><ellipse cx="2887.072" cy="395.3471" fill="#84BE84" rx="2.4" ry="2.4" style="stroke:#038048;stroke-width:0.8000000000000002;"/><text fill="#000000" font-family="sans-serif" font-size="11.2" lengthAdjust="spacing" textLength="125.0587" x="2894.272" y="398.4927">debug(message: String)</text><ellipse cx="2887.072" cy="410.6014" fill="#84BE84" rx="2.4" ry="2.4" style="stroke:#038048;stroke-width:0.8000000000000002;"/><text fill="#000000" font-family="sans-serif" font-size="11.2" lengthAdjust="spacing" textLength="117.79" x="2894.272" y="413.747">warn(message: String)</text><ellipse cx="2887.072" cy="425.8558" fill="#84BE84" rx="2.4" ry="2.4" style="stroke:#038048;stroke-width:0.8000000000000002;"/><text fill="#000000" font-family="sans-serif" font-size="11.2" lengthAdjust="spacing" textLength="118.126" x="2894.272" y="429.0013">error(message: String)</text></g><!--reverse link PropertyProvider to ApplicationPropertiesFileProvider--><g id="link_PropertyProvider_ApplicationPropertiesFileProvider"><path d="M168.3309,675.6194 C165.4269,702.0434 162.568,728.1456 159.672,754.5056 " fill="none" id="PropertyProvider-backto-ApplicationPropertiesFileProvider" style="stroke:#181818;stroke-width:0.8000000000000002;stroke-dasharray:7.0,7.0;"/><polygon fill="none" points="169.904,661.3056,163.5596,675.095,173.1022,676.1438,169.904,661.3056" style="stroke:#181818;stroke-width:0.8000000000000002;"/></g><!--reverse link EndpointRepository to MockEndpointRepository--><g id="link_EndpointRepository_MockEndpointRepository"><path d="M1590.7322,193.0753 C1637.3082,212.8753 1680.16,228.3056 1732.8,240.8096 C1763.368,248.0656 1772.848,239.0816 1803.2,247.2096 C1878.16,267.2816 1957.696,304.9056 2015.784,335.7696 " fill="none" id="EndpointRepository-backto-MockEndpointRepository" style="stroke:#181818;stroke-width:0.8000000000000002;stroke-dasharray:7.0,7.0;"/><polygon fill="none" points="1577.48,187.4416,1588.8543,197.4927,1592.6101,188.6579,1577.48,187.4416" style="stroke:#181818;stroke-width:0.8000000000000002;"/></g><!--reverse link EndpointRepository to SqliteRepository--><g id="link_EndpointRepository_SqliteRepository"><path d="M1585.5705,193.2195 C1632.9385,214.0035 1677.912,230.0736 1732.8,240.8096 C1766.128,247.3216 2311.216,238.3616 2344,247.2096 C2398.792,262.0016 2454.248,292.1376 2498.256,320.4656 " fill="none" id="EndpointRepository-backto-SqliteRepository" style="stroke:#181818;stroke-width:0.8000000000000002;stroke-dasharray:7.0,7.0;"/><polygon fill="none" points="1572.384,187.4336,1583.6418,197.615,1587.4991,188.824,1572.384,187.4336" style="stroke:#181818;stroke-width:0.8000000000000002;"/></g><!--reverse link Logger to SLF4JLogger--><g id="link_Logger_SLF4JLogger"><path d="M1906.1167,139.759 C2109.7167,144.135 2663.408,163.4336 2827.2,247.2096 C2866.16,267.1376 2898.72,304.7696 2920.688,335.6736 " fill="none" id="Logger-backto-SLF4JLogger" style="stroke:#181818;stroke-width:0.8000000000000002;stroke-dasharray:7.0,7.0;"/><polygon fill="none" points="1891.72,139.4496,1906.0135,144.5579,1906.2198,134.9601,1891.72,139.4496" style="stroke:#181818;stroke-width:0.8000000000000002;"/></g><!--link CreateEndpointUseCase to EndpointRepository--><g id="link_CreateEndpointUseCase_EndpointRepository"><path codeLine="155" d="M1630.832,351.0736 C1599.344,308.6736 1548.0777,239.6233 1512.0777,191.1433 " fill="none" id="CreateEndpointUseCase-to-EndpointRepository" style="stroke:#181818;stroke-width:0.8000000000000002;"/><polygon fill="#181818" points="1509.216,187.2896,1510.9394,194.9779,1511.6007,190.501,1516.0776,191.1624,1509.216,187.2896" style="stroke:#181818;stroke-width:0.8000000000000002;"/></g><!--link GetEndpointsUseCase to EndpointRepository--><g id="link_GetEndpointsUseCase_EndpointRepository"><path codeLine="156" d="M547.192,351.2096 C569.984,317.7376 609.944,268.4816 659.2,247.2096 C687.44,235.0176 1182.616,246.7296 1212.8,240.8096 C1267.56,230.0736 1321.1961,210.2093 1368.5001,189.4653 " fill="none" id="GetEndpointsUseCase-to-EndpointRepository" style="stroke:#181818;stroke-width:0.8000000000000002;"/><polygon fill="#181818" points="1372.896,187.5376,1365.017,187.4986,1369.2328,189.144,1367.5873,193.3598,1372.896,187.5376" style="stroke:#181818;stroke-width:0.8000000000000002;"/></g><!--link GetSingleEndpointUseCase to EndpointRepository--><g id="link_GetSingleEndpointUseCase_EndpointRepository"><path codeLine="157" d="M825.92,350.9616 C851.264,317.5536 894.96,268.5776 946.4,247.2096 C973.744,235.8496 1183.784,246.6896 1212.8,240.8096 C1267.256,229.7776 1320.6086,210.0173 1367.8166,189.4173 " fill="none" id="GetSingleEndpointUseCase-to-EndpointRepository" style="stroke:#181818;stroke-width:0.8000000000000002;"/><polygon fill="#181818" points="1372.216,187.4976,1364.3371,187.4443,1368.5498,189.0974,1366.8968,193.3101,1372.216,187.4976" style="stroke:#181818;stroke-width:0.8000000000000002;"/></g><!--link UpdateEndpointUseCase to EndpointRepository--><g id="link_UpdateEndpointUseCase_EndpointRepository"><path codeLine="158" d="M1125.128,350.9456 C1153.472,320.9456 1197.8,277.4416 1242.4,247.2096 C1275.728,224.6176 1310.1275,206.3454 1346.2235,189.5614 " fill="none" id="UpdateEndpointUseCase-to-EndpointRepository" style="stroke:#181818;stroke-width:0.8000000000000002;"/><polygon fill="#181818" points="1350.576,187.5376,1342.6981,187.6717,1346.9489,189.2241,1345.3965,193.475,1350.576,187.5376" style="stroke:#181818;stroke-width:0.8000000000000002;"/></g><!--link DeleteEndpointUseCase to EndpointRepository--><g id="link_DeleteEndpointUseCase_EndpointRepository"><path codeLine="159" d="M1388.608,351.0736 C1405.384,308.6736 1432.4585,240.2331 1451.6345,191.7531 " fill="none" id="DeleteEndpointUseCase-to-EndpointRepository" style="stroke:#181818;stroke-width:0.8000000000000002;"/><polygon fill="#181818" points="1453.4,187.2896,1447.776,192.8078,1451.9287,191.0092,1453.7274,195.1619,1453.4,187.2896" style="stroke:#181818;stroke-width:0.8000000000000002;"/></g><!--reverse link Endpoint to CreateEndpointUseCase--><g id="link_Endpoint_CreateEndpointUseCase"><path codeLine="160" d="M1167.2813,205.4319 C1187.8653,220.8559 1207.632,232.4096 1232,240.8096 C1261,250.8016 1479.584,235.6496 1508,247.2096 C1560.352,268.5056 1605.392,317.5056 1631.608,350.9376 " fill="none" id="Endpoint-backto-CreateEndpointUseCase" style="stroke:#181818;stroke-width:0.8000000000000002;"/><polygon fill="#181818" points="1163.44,202.5536,1167.283,209.4319,1166.641,204.9522,1171.1208,204.3102,1163.44,202.5536" style="stroke:#181818;stroke-width:0.8000000000000002;"/></g><!--reverse link Endpoint to GetEndpointsUseCase--><g id="link_Endpoint_GetEndpointsUseCase"><path codeLine="161" d="M983.4907,148.8405 C891.3467,161.2165 761.76,187.8656 659.2,247.2096 C613.912,273.4096 574.08,319.5216 550.136,351.1216 " fill="none" id="Endpoint-backto-GetEndpointsUseCase" style="stroke:#181818;stroke-width:0.8000000000000002;"/><polygon fill="#181818" points="988.248,148.2016,980.6861,145.9885,984.2836,148.7341,981.538,152.3315,988.248,148.2016" style="stroke:#181818;stroke-width:0.8000000000000002;"/></g><!--reverse link Endpoint to GetSingleEndpointUseCase--><g id="link_Endpoint_GetSingleEndpointUseCase"><path codeLine="162" d="M999.1292,205.5765 C980.0812,219.7925 964.232,232.2256 946.4,247.2096 C906.536,280.7136 863.776,322.4336 835.304,351.1376 " fill="none" id="Endpoint-backto-GetSingleEndpointUseCase" style="stroke:#181818;stroke-width:0.8000000000000002;"/><polygon fill="#181818" points="1002.976,202.7056,995.2919,204.4475,999.7704,205.098,999.1198,209.5765,1002.976,202.7056" style="stroke:#181818;stroke-width:0.8000000000000002;"/></g><!--reverse link Endpoint to UpdateEndpointUseCase--><g id="link_Endpoint_UpdateEndpointUseCase"><path codeLine="163" d="M1094.4,207.5456 C1094.4,255.0896 1094.4,313.0736 1094.4,351.1616 " fill="none" id="Endpoint-backto-UpdateEndpointUseCase" style="stroke:#181818;stroke-width:0.8000000000000002;"/><polygon fill="#181818" points="1094.4,202.7456,1091.2,209.9456,1094.4,206.7456,1097.6,209.9456,1094.4,202.7456" style="stroke:#181818;stroke-width:0.8000000000000002;"/></g><!--reverse link Endpoint to DeleteEndpointUseCase--><g id="link_Endpoint_DeleteEndpointUseCase"><path codeLine="164" d="M1182.1836,205.4899 C1199.7196,218.4179 1214.368,228.8496 1232,240.8096 C1236.488,243.8576 1238.176,243.8096 1242.4,247.2096 C1281.864,278.9696 1321.44,321.7776 1346.984,351.2016 " fill="none" id="Endpoint-backto-DeleteEndpointUseCase" style="stroke:#181818;stroke-width:0.8000000000000002;"/><polygon fill="#181818" points="1178.32,202.6416,1182.2165,209.4898,1181.5396,205.0152,1186.0142,204.3384,1178.32,202.6416" style="stroke:#181818;stroke-width:0.8000000000000002;"/></g><!--reverse link EndpointsValidator to EndpointsController--><g id="link_EndpointsValidator_EndpointsController"><path codeLine="167" d="M950.072,634.0976 C959.2,634.0976 963.528,634.0976 972.656,634.0976 " fill="none" id="EndpointsValidator-backto-EndpointsController" style="stroke:#181818;stroke-width:0.8000000000000002;"/><polygon fill="#181818" points="945.272,634.0976,952.472,637.2976,949.272,634.0976,952.472,630.8976,945.272,634.0976" style="stroke:#181818;stroke-width:0.8000000000000002;"/></g><!--link EndpointsController to EndpointOutput--><g id="link_EndpointsController_EndpointOutput"><path codeLine="168" d="M1216.4,634.0976 C1225.456,634.0976 1229.712,634.0976 1238.768,634.0976 " fill="none" id="EndpointsController-to-EndpointOutput" style="stroke:#181818;stroke-width:0.8000000000000002;"/><polygon fill="#181818" points="1243.568,634.0976,1236.368,630.8976,1239.568,634.0976,1236.368,637.2976,1243.568,634.0976" style="stroke:#181818;stroke-width:0.8000000000000002;"/></g><!--link EndpointsController to EndpointCreateInput--><g id="link_EndpointsController_EndpointCreateInput"><path codeLine="169" d="M1057.664,699.2816 C1046.52,718.8096 1037.2827,735.0004 1028.4507,750.4804 " fill="none" id="EndpointsController-to-EndpointCreateInput" style="stroke:#181818;stroke-width:0.8000000000000002;"/><polygon fill="#181818" points="1026.072,754.6496,1032.4195,749.9816,1028.0542,751.1753,1026.8606,746.8101,1026.072,754.6496" style="stroke:#181818;stroke-width:0.8000000000000002;"/></g><!--link EndpointsController to EndpointUpdateInput--><g id="link_EndpointsController_EndpointUpdateInput"><path codeLine="170" d="M1131.136,699.2816 C1140.536,715.7616 1147.9031,728.6554 1156.0151,742.8874 " fill="none" id="EndpointsController-to-EndpointUpdateInput" style="stroke:#181818;stroke-width:0.8000000000000002;"/><polygon fill="#181818" points="1158.392,747.0576,1157.6067,739.2177,1156.4112,743.5825,1152.0465,742.387,1158.392,747.0576" style="stroke:#181818;stroke-width:0.8000000000000002;"/></g><!--reverse link CreateEndpointUseCase to EndpointsController--><g id="link_CreateEndpointUseCase_EndpointsController"><path codeLine="171" d="M1616.4495,423.6763 C1588.3615,447.8443 1550.656,475.2576 1508,489.1376 C1478.576,498.7056 1257.992,483.2336 1229.6,495.5376 C1193.776,511.0576 1162.56,540.9776 1139.176,568.9856 " fill="none" id="CreateEndpointUseCase-backto-EndpointsController" style="stroke:#181818;stroke-width:0.8000000000000002;"/><polygon fill="#181818" points="1620.088,420.5456,1612.5431,422.816,1617.0559,423.1545,1616.7174,427.6673,1620.088,420.5456" style="stroke:#181818;stroke-width:0.8000000000000002;"/></g><!--reverse link GetEndpointsUseCase to EndpointsController--><g id="link_GetEndpointsUseCase_EndpointsController"><path codeLine="172" d="M561.4036,423.8655 C586.2756,448.0175 619.784,475.2176 659.2,489.1376 C690.64,500.2336 928.6,482.3056 959.2,495.5376 C995.032,511.0256 1026.256,540.9456 1049.64,568.9616 " fill="none" id="GetEndpointsUseCase-backto-EndpointsController" style="stroke:#181818;stroke-width:0.8000000000000002;"/><polygon fill="#181818" points="557.96,420.5216,560.8961,427.8332,560.8297,423.3082,565.3547,423.2417,557.96,420.5216" style="stroke:#181818;stroke-width:0.8000000000000002;"/></g><!--reverse link GetSingleEndpointUseCase to EndpointsController--><g id="link_GetSingleEndpointUseCase_EndpointsController"><path codeLine="173" d="M850.1133,423.3998 C878.0333,444.3198 911.544,468.1856 946.4,489.1376 C951.848,492.4096 954.056,491.7936 959.2,495.5376 C988.192,516.6336 1016.568,544.1696 1039.776,569.0656 " fill="none" id="GetSingleEndpointUseCase-backto-EndpointsController" style="stroke:#181818;stroke-width:0.8000000000000002;"/><polygon fill="#181818" points="846.272,420.5216,850.1152,427.3998,849.4731,422.9201,853.9528,422.2781,846.272,420.5216" style="stroke:#181818;stroke-width:0.8000000000000002;"/></g><!--reverse link UpdateEndpointUseCase to EndpointsController--><g id="link_UpdateEndpointUseCase_EndpointsController"><path codeLine="174" d="M1094.4,425.4176 C1094.4,463.5536 1094.4,521.4416 1094.4,568.9056 " fill="none" id="UpdateEndpointUseCase-backto-EndpointsController" style="stroke:#181818;stroke-width:0.8000000000000002;"/><polygon fill="#181818" points="1094.4,420.6176,1091.2,427.8176,1094.4,424.6176,1097.6,427.8176,1094.4,420.6176" style="stroke:#181818;stroke-width:0.8000000000000002;"/></g><!--reverse link DeleteEndpointUseCase to EndpointsController--><g id="link_DeleteEndpointUseCase_EndpointsController"><path codeLine="175" d="M1331.7077,423.6332 C1306.0677,444.7052 1275.216,468.5296 1242.4,489.1376 C1237.016,492.5136 1234.744,491.7936 1229.6,495.5376 C1200.608,516.6336 1172.232,544.1696 1149.024,569.0656 " fill="none" id="DeleteEndpointUseCase-backto-EndpointsController" style="stroke:#181818;stroke-width:0.8000000000000002;"/><polygon fill="#181818" points="1335.416,420.5856,1327.8217,422.6849,1332.3257,423.1253,1331.8853,427.6293,1335.416,420.5856" style="stroke:#181818;stroke-width:0.8000000000000002;"/></g><!--reverse link ApplicationDepencyInjector to main--><g id="link_ApplicationDepencyInjector_main"><path codeLine="177" d="M418.4,813.4016 C418.4,830.7696 418.4,848.3136 418.4,863.8336 " fill="none" id="ApplicationDepencyInjector-backto-main" style="stroke:#181818;stroke-width:0.8000000000000002;"/><polygon fill="#181818" points="418.4,808.6016,415.2,815.8016,418.4,812.6016,421.6,815.8016,418.4,808.6016" style="stroke:#181818;stroke-width:0.8000000000000002;"/></g><!--reverse link EndpointsController to ApplicationDepencyInjector--><g id="link_EndpointsController_ApplicationDepencyInjector"><path codeLine="178" d="M968.1892,696.2426 C963.6612,697.8266 963.68,697.7136 959.2,699.0576 C814.072,742.7136 771.392,724.0096 621.6,747.0576 C598.896,750.5536 574.784,754.4176 551.408,758.2336 " fill="none" id="EndpointsController-backto-ApplicationDepencyInjector" style="stroke:#181818;stroke-width:0.8000000000000002;"/><polygon fill="#181818" points="972.72,694.6576,964.8672,694.0145,968.9444,695.9784,966.9805,700.0556,972.72,694.6576" style="stroke:#181818;stroke-width:0.8000000000000002;"/></g><!--reverse link PropertyProvider to ApplicationDepencyInjector--><g id="link_PropertyProvider_ApplicationDepencyInjector"><path codeLine="179" d="M221.4074,663.756 C265.8474,690.14 329.648,728.0256 374.048,754.3856 " fill="none" id="PropertyProvider-backto-ApplicationDepencyInjector" style="stroke:#181818;stroke-width:0.8000000000000002;"/><polygon fill="#181818" points="217.28,661.3056,221.8375,667.7328,220.7195,663.3476,225.1047,662.2296,217.28,661.3056" style="stroke:#181818;stroke-width:0.8000000000000002;"/></g><!--SRC=[vLXVRzis47_Nfz1RPDGEiArFnf2XjPCYGz9aSR9tLJexR6XH9QasGP7ltfDfIQHqecMdmGhC3xP5tVtkBu-yo-Fa8Lv16ESvPqcicSYE2mL9h23y7eJuINYiL3YJ46iupT9Si4pVAPWr5ELd4iBstGtaGZ4jvDCqFEsiZMkEDo4yGb9eY2hEXduq3Mz05Lp_MQsSRFYUBOq-WAvUgf-hJoFzWYbB1LA71SjM_9KSmz9tQg4bIfY6vdU8O-xoz1SBrHmuwF_0HtSPgxLv3e9yc-kfMCSiErwB5BYJv9N4HhL9oD9fU9uspxaKMYI2JyFhxR_cdG6UXlFDxyTu3HQVaEYrQ_osrc9zZslutQnzAK0-NSSIcJL8DGt_SHTwpP6rcxRgeo4Wbt42X2Sjvxy9LyrEYeoveyRxVrc4YLC4w6Ie_bfiXPEGAE9gMJtS2fEjfT1ndGLcBTs5cpffLQdUwo0kLYkG7UTSsCi6c6LB4Qr1AUIkiyeH_AbO-GY-nJBplGSfXQG97Cr_cw0gCbPQ5eakPBLdyhfeCqjlDuVLJ6HQ2iuTsunufMEfez7OMPxOUQ2Y1DdX4MDx8mgDsitCCp8TkLptSPPoM1H9WkPy600njWMPdTfNSFkadSMCepk6IOCcUKuV4yZBCyvd-yjDxzUbp54JRPyNQWTqr6pjmCCqdGq26RU4UNJqnMYei45HQbMImyo_6mJYnieLVA0h3X4yo2sjGdYOM-Q3G6pjTk_EAxa_Qe_DjSdFFGNl4g-mHArBjRWLxml5ChInFh9CLfvdUM6TNjQYTU2C1m6QsBO0hKKFuASjrgsOQr43uidl5iDHQ-6gq8XxCWoDF4eDmax7gdzZpj0GqNNkL_C6Rs4-JsxZsijhXPxv74ZZf0BKHw7BJC9J_hGyMJ4ivSzbwtoTXk-5u11dEqsszE_ON4XU8Ux4iVJlu5Xclq22YU5F0NTk7h_xRnv9shrvb9Uiy7jRqNTDOpc77BBawJpx30cLJPjhYKKVcGMvAjRGR0YZEr5hyJp5A_cISJ2CHTx7slY6XC0oef_E4AUymKUvmRIooFm9EzmiGxcPPXZovl9Lycy04VWhIq5k6WTdnTgIrgtD1q_qliFa48mxv93zxM1X9BVNSTISOPWuajKdYsoKXyaYMNsoo1Puc2oIrIUhQVFErpdVBm7jPhjVGXl0biD0LNl7sZDj3X-wwSYYJVremPXNOw8iLfMfqQ9LNvgEhwrBYx1kYgC7UEfiUuVqsNdg5BnhnoErE8RUWarTUXLLY6h-Xx-QemeAwoCMP-XKzKkHF13p0yk6plpXs3jls6lcy8AvmslE7dRE7wWZU_65CtjpljY7U9dEy2IDHcszcEfxzRznkvF-Pl8pKNpvzhCpy5jSdBtzUpi0waR3i1t_YWEY8sjU7z2p-ObagtizEHcKMm4rJTyRWPw5xmT3Jw_tmw3dpVjXz3Yro16WJapIQnsI7hUuT3rskqGzXhb4mP5Rx0Dg93ZXiDGMLzFaqUILxrgz8qcRYc-PHMerKuFehQQ9fj-OIyR7Gq-4oazDHit3GWRGGq_6CWWsNPIXw6-T0azNvMQ39NStK_is4lm0]--></g></svg>