<svg xmlns="http://www.w3.org/2000/svg" xmlns:xlink="http://www.w3.org/1999/xlink" contentStyleType="text/css" height="849.6px" preserveAspectRatio="none" style="width:1596px;height:849px;background:#FFFFFF;" version="1.1" viewBox="0 0 1596 849" width="1596px" zoomAndPan="magnify"><defs/><g><!--cluster application--><g id="cluster_application"><path d="M6.8,291.7456 L70.4654,291.7456 A3,3 0 0 1 72.4654,293.7456 L78.0654,311.7999 L564.4,311.7999 A2,2 0 0 1 566.4,313.7999 L566.4,442.6016 A2,2 0 0 1 564.4,444.6016 L6.8,444.6016 A2,2 0 0 1 4.8,442.6016 L4.8,293.7456 A2,2 0 0 1 6.8,291.7456 " fill="none" style="stroke:#000000;stroke-width:1.2000000000000002;"/><line style="stroke:#000000;stroke-width:1.2000000000000002;" x1="4.8" x2="78.0654" y1="311.7999" y2="311.7999"/><text fill="#000000" font-family="sans-serif" font-size="11.2" font-weight="bold" lengthAdjust="spacing" textLength="62.8654" x="8" y="305.3183">application</text></g><!--cluster usecase--><g id="cluster_usecase"><path d="M26,328.5456 L71.051,328.5456 A3,3 0 0 1 73.051,330.5456 L78.651,348.5999 L545.2,348.5999 A2,2 0 0 1 547.2,350.5999 L547.2,423.4016 A2,2 0 0 1 545.2,425.4016 L26,425.4016 A2,2 0 0 1 24,423.4016 L24,330.5456 A2,2 0 0 1 26,328.5456 " fill="none" style="stroke:#000000;stroke-width:1.2000000000000002;"/><line style="stroke:#000000;stroke-width:1.2000000000000002;" x1="24" x2="78.651" y1="348.5999" y2="348.5999"/><text fill="#000000" font-family="sans-serif" font-size="11.2" font-weight="bold" lengthAdjust="spacing" textLength="44.251" x="27.2" y="342.1183">usecase</text></g><!--cluster domain--><g id="cluster_domain"><path d="M111.6,5.2816 L154.9598,5.2816 A3,3 0 0 1 156.9598,7.2816 L162.5598,25.3359 L883.6,25.3359 A2,2 0 0 1 885.6,27.3359 L885.6,232.4096 A2,2 0 0 1 883.6,234.4096 L111.6,234.4096 A2,2 0 0 1 109.6,232.4096 L109.6,7.2816 A2,2 0 0 1 111.6,5.2816 " fill="none" style="stroke:#000000;stroke-width:1.2000000000000002;"/><line style="stroke:#000000;stroke-width:1.2000000000000002;" x1="109.6" x2="162.5598" y1="25.3359" y2="25.3359"/><text fill="#000000" font-family="sans-serif" font-size="11.2" font-weight="bold" lengthAdjust="spacing" textLength="42.5598" x="112.8" y="18.8543">domain</text></g><!--cluster model--><g id="cluster_model"><path d="M130.8,42.0816 L166.6559,42.0816 A3,3 0 0 1 168.6559,44.0816 L174.2559,62.1359 L363.6,62.1359 A2,2 0 0 1 365.6,64.1359 L365.6,213.2096 A2,2 0 0 1 363.6,215.2096 L130.8,215.2096 A2,2 0 0 1 128.8,213.2096 L128.8,44.0816 A2,2 0 0 1 130.8,42.0816 " fill="none" style="stroke:#000000;stroke-width:1.2000000000000002;"/><line style="stroke:#000000;stroke-width:1.2000000000000002;" x1="128.8" x2="174.2559" y1="62.1359" y2="62.1359"/><text fill="#000000" font-family="sans-serif" font-size="11.2" font-weight="bold" lengthAdjust="spacing" textLength="35.0559" x="132" y="55.6543">model</text></g><!--cluster repository--><g id="cluster_repository"><path d="M386.8,57.3376 L445.5598,57.3376 A3,3 0 0 1 447.5598,59.3376 L453.1598,77.3919 L864.4,77.3919 A2,2 0 0 1 866.4,79.3919 L866.4,197.9536 A2,2 0 0 1 864.4,199.9536 L386.8,199.9536 A2,2 0 0 1 384.8,197.9536 L384.8,59.3376 A2,2 0 0 1 386.8,57.3376 " fill="none" style="stroke:#000000;stroke-width:1.2000000000000002;"/><line style="stroke:#000000;stroke-width:1.2000000000000002;" x1="384.8" x2="453.1598" y1="77.3919" y2="77.3919"/><text fill="#000000" font-family="sans-serif" font-size="11.2" font-weight="bold" lengthAdjust="spacing" textLength="57.9598" x="388" y="70.9103">repository</text></g><!--cluster 1-infrastructure--><g id="cluster_1-infrastructure"><path d="M68.4,501.9376 L158.7213,501.9376 A3,3 0 0 1 160.7213,503.9376 L166.3213,521.9919 L708.4,521.9919 A2,2 0 0 1 710.4,523.9919 L710.4,842.0256 A2,2 0 0 1 708.4,844.0256 L68.4,844.0256 A2,2 0 0 1 66.4,842.0256 L66.4,503.9376 A2,2 0 0 1 68.4,501.9376 " fill="none" style="stroke:#000000;stroke-width:1.2000000000000002;"/><line style="stroke:#000000;stroke-width:1.2000000000000002;" x1="66.4" x2="166.3213" y1="521.9919" y2="521.9919"/><text fill="#000000" font-family="sans-serif" font-size="11.2" font-weight="bold" lengthAdjust="spacing" textLength="89.5213" x="69.6" y="515.5103">1-infrastructure</text></g><!--cluster api--><g id="cluster_api"><path d="M87.6,538.7376 L105.6703,538.7376 A3,3 0 0 1 107.6703,540.7376 L113.2703,558.7919 L530,558.7919 A2,2 0 0 1 532,560.7919 L532,648.8416 A2,2 0 0 1 530,650.8416 L87.6,650.8416 A2,2 0 0 1 85.6,648.8416 L85.6,540.7376 A2,2 0 0 1 87.6,538.7376 " fill="none" style="stroke:#000000;stroke-width:1.2000000000000002;"/><line style="stroke:#000000;stroke-width:1.2000000000000002;" x1="85.6" x2="113.2703" y1="558.7919" y2="558.7919"/><text fill="#000000" font-family="sans-serif" font-size="11.2" font-weight="bold" lengthAdjust="spacing" textLength="17.2703" x="88.8" y="552.3103">api</text></g><!--cluster 2-infrastructure--><g id="cluster_2-infrastructure"><path d="M1091.6,20.5376 L1181.9213,20.5376 A3,3 0 0 1 1183.9213,22.5376 L1189.5213,40.5919 L1495.6,40.5919 A2,2 0 0 1 1497.6,42.5919 L1497.6,217.1536 A2,2 0 0 1 1495.6,219.1536 L1091.6,219.1536 A2,2 0 0 1 1089.6,217.1536 L1089.6,22.5376 A2,2 0 0 1 1091.6,20.5376 " fill="none" style="stroke:#000000;stroke-width:1.2000000000000002;"/><line style="stroke:#000000;stroke-width:1.2000000000000002;" x1="1089.6" x2="1189.5213" y1="40.5919" y2="40.5919"/><text fill="#000000" font-family="sans-serif" font-size="11.2" font-weight="bold" lengthAdjust="spacing" textLength="89.5213" x="1092.8" y="34.1103">2-infrastructure</text></g><!--cluster cdi--><g id="cluster_cdi"><path d="M1110.8,57.3376 L1127.8623,57.3376 A3,3 0 0 1 1129.8623,59.3376 L1135.4623,77.3919 L1476.4,77.3919 A2,2 0 0 1 1478.4,79.3919 L1478.4,197.9536 A2,2 0 0 1 1476.4,199.9536 L1110.8,199.9536 A2,2 0 0 1 1108.8,197.9536 L1108.8,59.3376 A2,2 0 0 1 1110.8,57.3376 " fill="none" style="stroke:#000000;stroke-width:1.2000000000000002;"/><line style="stroke:#000000;stroke-width:1.2000000000000002;" x1="1108.8" x2="1135.4623" y1="77.3919" y2="77.3919"/><text fill="#000000" font-family="sans-serif" font-size="11.2" font-weight="bold" lengthAdjust="spacing" textLength="16.2623" x="1112" y="70.9103">cdi</text></g><!--cluster 3-infrastructure--><g id="cluster_3-infrastructure"><path d="M587.6,253.6096 L677.9213,253.6096 A3,3 0 0 1 679.9213,255.6096 L685.5213,273.6639 L1588.4,273.6639 A2,2 0 0 1 1590.4,275.6639 L1590.4,480.7376 A2,2 0 0 1 1588.4,482.7376 L587.6,482.7376 A2,2 0 0 1 585.6,480.7376 L585.6,255.6096 A2,2 0 0 1 587.6,253.6096 " fill="none" style="stroke:#000000;stroke-width:1.2000000000000002;"/><line style="stroke:#000000;stroke-width:1.2000000000000002;" x1="585.6" x2="685.5213" y1="273.6639" y2="273.6639"/><text fill="#000000" font-family="sans-serif" font-size="11.2" font-weight="bold" lengthAdjust="spacing" textLength="89.5213" x="588.8" y="267.1823">3-infrastructure</text></g><!--cluster persistence--><g id="cluster_persistence"><path d="M606.8,290.4096 L672.1566,290.4096 A3,3 0 0 1 674.1566,292.4096 L679.7566,310.4639 L1569.2,310.4639 A2,2 0 0 1 1571.2,312.4639 L1571.2,461.5376 A2,2 0 0 1 1569.2,463.5376 L606.8,463.5376 A2,2 0 0 1 604.8,461.5376 L604.8,292.4096 A2,2 0 0 1 606.8,290.4096 " fill="none" style="stroke:#000000;stroke-width:1.2000000000000002;"/><line style="stroke:#000000;stroke-width:1.2000000000000002;" x1="604.8" x2="679.7566" y1="310.4639" y2="310.4639"/><text fill="#000000" font-family="sans-serif" font-size="11.2" font-weight="bold" lengthAdjust="spacing" textLength="64.5566" x="608" y="303.9823">persistence</text></g><!--class CreateEndpointUseCase--><g id="elem_CreateEndpointUseCase"><rect codeLine="3" fill="#F1F1F1" height="53.6543" id="CreateEndpointUseCase" rx="2" ry="2" style="stroke:#181818;stroke-width:0.4000000000000001;" width="234.6296" x="37.088" y="358.9456"/><ellipse cx="87.4374" cy="371.7456" fill="#ADD1B2" rx="8.8" ry="8.8" style="stroke:#181818;stroke-width:0.8000000000000002;"/><path d="M87.0124,377.2831 Q85.6124,377.2831 84.6999,376.6956 Q83.7999,376.0956 83.3499,375.0206 Q82.9124,373.9331 82.9124,372.4956 Q82.9124,370.8706 83.4374,369.7081 Q83.9624,368.5456 84.9874,367.9206 Q86.0124,367.2956 87.5124,367.2956 Q88.2249,367.2956 88.7624,367.4456 Q89.2999,367.5831 89.8499,367.8581 L89.1999,369.4706 Q88.6999,369.2206 88.2624,369.1206 Q87.8374,369.0206 87.4499,369.0206 Q86.5124,369.0206 85.9499,369.4456 Q85.3874,369.8706 85.1499,370.6331 Q84.9124,371.3956 84.9124,372.4081 Q84.9124,374.0206 85.4874,374.7956 Q86.0624,375.5581 87.3374,375.5581 Q87.8124,375.5581 88.3124,375.4331 Q88.8124,375.3081 89.4749,375.0081 L89.4749,376.7831 Q88.8874,377.0331 88.2499,377.1581 Q87.6249,377.2831 87.0124,377.2831 Z " fill="#000000"/><text fill="#000000" font-family="sans-serif" font-size="11.2" lengthAdjust="spacing" textLength="127.1307" x="103.8374" y="376.0912">CreateEndpointUseCase</text><line style="stroke:#181818;stroke-width:0.4000000000000001;" x1="37.888" x2="270.9176" y1="384.5456" y2="384.5456"/><rect fill="none" height="4.8" style="stroke:#C82930;stroke-width:0.8000000000000002;" width="4.8" x="43.488" y="394.1728"/><text fill="#000000" font-family="sans-serif" font-size="11.2" lengthAdjust="spacing" textLength="213.8296" x="53.088" y="399.7183">endpointRepository: EndpointRepository</text><line style="stroke:#181818;stroke-width:0.4000000000000001;" x1="37.888" x2="270.9176" y1="406.1999" y2="406.1999"/></g><!--class GetEndpointUseCase--><g id="elem_GetEndpointUseCase"><rect codeLine="6" fill="#F1F1F1" height="53.6543" id="GetEndpointUseCase" rx="2" ry="2" style="stroke:#181818;stroke-width:0.4000000000000001;" width="234.6296" x="299.488" y="358.9456"/><ellipse cx="357.9126" cy="371.7456" fill="#ADD1B2" rx="8.8" ry="8.8" style="stroke:#181818;stroke-width:0.8000000000000002;"/><path d="M357.4876,377.2831 Q356.0876,377.2831 355.1751,376.6956 Q354.2751,376.0956 353.8251,375.0206 Q353.3876,373.9331 353.3876,372.4956 Q353.3876,370.8706 353.9126,369.7081 Q354.4376,368.5456 355.4626,367.9206 Q356.4876,367.2956 357.9876,367.2956 Q358.7001,367.2956 359.2376,367.4456 Q359.7751,367.5831 360.3251,367.8581 L359.6751,369.4706 Q359.1751,369.2206 358.7376,369.1206 Q358.3126,369.0206 357.9251,369.0206 Q356.9876,369.0206 356.4251,369.4456 Q355.8626,369.8706 355.6251,370.6331 Q355.3876,371.3956 355.3876,372.4081 Q355.3876,374.0206 355.9626,374.7956 Q356.5376,375.5581 357.8126,375.5581 Q358.2876,375.5581 358.7876,375.4331 Q359.2876,375.3081 359.9501,375.0081 L359.9501,376.7831 Q359.3626,377.0331 358.7251,377.1581 Q358.1001,377.2831 357.4876,377.2831 Z " fill="#000000"/><text fill="#000000" font-family="sans-serif" font-size="11.2" lengthAdjust="spacing" textLength="110.9804" x="374.3126" y="376.0912">GetEndpointUseCase</text><line style="stroke:#181818;stroke-width:0.4000000000000001;" x1="300.288" x2="533.3176" y1="384.5456" y2="384.5456"/><rect fill="none" height="4.8" style="stroke:#C82930;stroke-width:0.8000000000000002;" width="4.8" x="305.888" y="394.1728"/><text fill="#000000" font-family="sans-serif" font-size="11.2" lengthAdjust="spacing" textLength="213.8296" x="315.488" y="399.7183">endpointRepository: EndpointRepository</text><line style="stroke:#181818;stroke-width:0.4000000000000001;" x1="300.288" x2="533.3176" y1="406.1999" y2="406.1999"/></g><!--class Endpoint--><g id="elem_Endpoint"><rect codeLine="12" fill="#F1F1F1" height="129.926" id="Endpoint" rx="2" ry="2" style="stroke:#181818;stroke-width:0.4000000000000001;" width="211.7145" x="141.344" y="72.4816"/><ellipse cx="220.0237" cy="85.2816" fill="#ADD1B2" rx="8.8" ry="8.8" style="stroke:#181818;stroke-width:0.8000000000000002;"/><path d="M219.5987,90.8191 Q218.1987,90.8191 217.2862,90.2316 Q216.3862,89.6316 215.9362,88.5566 Q215.4987,87.4691 215.4987,86.0316 Q215.4987,84.4066 216.0237,83.2441 Q216.5487,82.0816 217.5737,81.4566 Q218.5987,80.8316 220.0987,80.8316 Q220.8112,80.8316 221.3487,80.9816 Q221.8862,81.1191 222.4362,81.3941 L221.7862,83.0066 Q221.2862,82.7566 220.8487,82.6566 Q220.4237,82.5566 220.0362,82.5566 Q219.0987,82.5566 218.5362,82.9816 Q217.9737,83.4066 217.7362,84.1691 Q217.4987,84.9316 217.4987,85.9441 Q217.4987,87.5566 218.0737,88.3316 Q218.6487,89.0941 219.9237,89.0941 Q220.3987,89.0941 220.8987,88.9691 Q221.3987,88.8441 222.0612,88.5441 L222.0612,90.3191 Q221.4737,90.5691 220.8362,90.6941 Q220.2112,90.8191 219.5987,90.8191 Z " fill="#000000"/><text fill="#000000" font-family="sans-serif" font-size="11.2" lengthAdjust="spacing" textLength="47.555" x="236.4237" y="89.6272">Endpoint</text><line style="stroke:#181818;stroke-width:0.4000000000000001;" x1="142.144" x2="352.2585" y1="98.0816" y2="98.0816"/><rect fill="none" height="4.8" style="stroke:#C82930;stroke-width:0.8000000000000002;" width="4.8" x="147.744" y="107.7088"/><text fill="#000000" font-family="sans-serif" font-size="11.2" lengthAdjust="spacing" textLength="26.3759" x="157.344" y="113.2543">id: Id</text><rect fill="none" height="4.8" style="stroke:#C82930;stroke-width:0.8000000000000002;" width="4.8" x="147.744" y="122.9631"/><text fill="#000000" font-family="sans-serif" font-size="11.2" lengthAdjust="spacing" textLength="94.1021" x="157.344" y="128.5087">protocol: Protocol</text><rect fill="none" height="4.8" style="stroke:#C82930;stroke-width:0.8000000000000002;" width="4.8" x="147.744" y="138.2174"/><text fill="#000000" font-family="sans-serif" font-size="11.2" lengthAdjust="spacing" textLength="119.2459" x="157.344" y="143.763">domain: DomainName</text><rect fill="none" height="4.8" style="stroke:#C82930;stroke-width:0.8000000000000002;" width="4.8" x="147.744" y="153.4718"/><text fill="#000000" font-family="sans-serif" font-size="11.2" lengthAdjust="spacing" textLength="50.467" x="157.344" y="159.0173">port: Port</text><rect fill="none" height="4.8" style="stroke:#C82930;stroke-width:0.8000000000000002;" width="4.8" x="147.744" y="168.7261"/><text fill="#000000" font-family="sans-serif" font-size="11.2" lengthAdjust="spacing" textLength="54.0734" x="157.344" y="174.2717">path: Path</text><rect fill="none" height="4.8" style="stroke:#C82930;stroke-width:0.8000000000000002;" width="4.8" x="147.744" y="183.9804"/><text fill="#000000" font-family="sans-serif" font-size="11.2" lengthAdjust="spacing" textLength="190.9145" x="157.344" y="189.526">queryParameters: QueryParameters</text><line style="stroke:#181818;stroke-width:0.4000000000000001;" x1="142.144" x2="352.2585" y1="196.0076" y2="196.0076"/></g><!--class EndpointRepository--><g id="elem_EndpointRepository"><rect codeLine="23" fill="#F1F1F1" height="99.4173" id="EndpointRepository" rx="2" ry="2" style="stroke:#181818;stroke-width:0.4000000000000001;" width="456.5457" x="397.328" y="87.7376"/><ellipse cx="573.7778" cy="100.5376" fill="#B4A7E5" rx="8.8" ry="8.8" style="stroke:#181818;stroke-width:0.8000000000000002;"/><path d="M570.6028,105.7376 L570.6028,104.3751 L572.4903,104.1626 L572.4903,97.6001 L570.6028,97.3876 L570.6028,96.0251 L576.3153,96.0251 L576.3153,97.3876 L574.3778,97.6001 L574.3778,104.1626 L576.3153,104.3751 L576.3153,105.7376 L570.6028,105.7376 Z " fill="#000000"/><text fill="#000000" font-family="sans-serif" font-size="11.2" font-style="italic" lengthAdjust="spacing" textLength="96.846" x="590.1778" y="104.8832">EndpointRepository</text><line style="stroke:#181818;stroke-width:0.4000000000000001;" x1="398.128" x2="853.0737" y1="113.3376" y2="113.3376"/><line style="stroke:#181818;stroke-width:0.4000000000000001;" x1="398.128" x2="853.0737" y1="119.7376" y2="119.7376"/><ellipse cx="406.128" cy="131.7648" fill="#84BE84" rx="2.4" ry="2.4" style="stroke:#038048;stroke-width:0.8000000000000002;"/><text fill="#000000" font-family="sans-serif" font-size="11.2" lengthAdjust="spacing" textLength="156.2282" x="413.328" y="134.9103">getEndpoint(id: Id): Endpoint?</text><ellipse cx="406.128" cy="147.0191" fill="#84BE84" rx="2.4" ry="2.4" style="stroke:#038048;stroke-width:0.8000000000000002;"/><text fill="#000000" font-family="sans-serif" font-size="11.2" lengthAdjust="spacing" textLength="241.8183" x="413.328" y="150.1647">createEndpoint(endpoint: Endpoint): Endpoint</text><ellipse cx="406.128" cy="162.2734" fill="#84BE84" rx="2.4" ry="2.4" style="stroke:#038048;stroke-width:0.8000000000000002;"/><text fill="#000000" font-family="sans-serif" font-size="11.2" lengthAdjust="spacing" textLength="435.7457" x="413.328" y="165.419">updateEndpoint(idOfEndpointToUpdate: Id, endpointUpdated: Endpoint): Endpoint</text><ellipse cx="406.128" cy="177.5278" fill="#84BE84" rx="2.4" ry="2.4" style="stroke:#038048;stroke-width:0.8000000000000002;"/><text fill="#000000" font-family="sans-serif" font-size="11.2" lengthAdjust="spacing" textLength="113.422" x="413.328" y="180.6733">deleteEndpoint(id: Id)</text></g><!--class EndpointOutput--><g id="elem_EndpointOutput"><rect codeLine="38" fill="#F1F1F1" height="129.926" id="EndpointOutput" rx="2" ry="2" style="stroke:#181818;stroke-width:0.4000000000000001;" width="149.8011" x="547.496" y="538.6256"/><ellipse cx="577.0827" cy="551.4256" fill="#ADD1B2" rx="8.8" ry="8.8" style="stroke:#181818;stroke-width:0.8000000000000002;"/><path d="M576.6577,556.9631 Q575.2577,556.9631 574.3452,556.3756 Q573.4452,555.7756 572.9952,554.7006 Q572.5577,553.6131 572.5577,552.1756 Q572.5577,550.5506 573.0827,549.3881 Q573.6077,548.2256 574.6327,547.6006 Q575.6577,546.9756 577.1577,546.9756 Q577.8702,546.9756 578.4077,547.1256 Q578.9452,547.2631 579.4952,547.5381 L578.8452,549.1506 Q578.3452,548.9006 577.9077,548.8006 Q577.4827,548.7006 577.0952,548.7006 Q576.1577,548.7006 575.5952,549.1256 Q575.0327,549.5506 574.7952,550.3131 Q574.5577,551.0756 574.5577,552.0881 Q574.5577,553.7006 575.1327,554.4756 Q575.7077,555.2381 576.9827,555.2381 Q577.4577,555.2381 577.9577,555.1131 Q578.4577,554.9881 579.1202,554.6881 L579.1202,556.4631 Q578.5327,556.7131 577.8952,556.8381 Q577.2702,556.9631 576.6577,556.9631 Z " fill="#000000"/><text fill="#000000" font-family="sans-serif" font-size="11.2" lengthAdjust="spacing" textLength="85.1197" x="592.1908" y="555.7712">EndpointOutput</text><line style="stroke:#181818;stroke-width:0.4000000000000001;" x1="548.296" x2="696.4971" y1="564.2256" y2="564.2256"/><ellipse cx="556.296" cy="576.2528" fill="none" rx="2.4" ry="2.4" style="stroke:#038048;stroke-width:0.8000000000000002;"/><text fill="#000000" font-family="sans-serif" font-size="11.2" lengthAdjust="spacing" textLength="55.0702" x="563.496" y="579.3983">id: String?,</text><ellipse cx="556.296" cy="591.5071" fill="none" rx="2.4" ry="2.4" style="stroke:#038048;stroke-width:0.8000000000000002;"/><text fill="#000000" font-family="sans-serif" font-size="11.2" lengthAdjust="spacing" textLength="84.5821" x="563.496" y="594.6527">protocol: String,</text><ellipse cx="556.296" cy="606.7614" fill="none" rx="2.4" ry="2.4" style="stroke:#038048;stroke-width:0.8000000000000002;"/><text fill="#000000" font-family="sans-serif" font-size="11.2" lengthAdjust="spacing" textLength="80.6621" x="563.496" y="609.907">domain: String,</text><ellipse cx="556.296" cy="622.0158" fill="none" rx="2.4" ry="2.4" style="stroke:#038048;stroke-width:0.8000000000000002;"/><text fill="#000000" font-family="sans-serif" font-size="11.2" lengthAdjust="spacing" textLength="46.0094" x="563.496" y="625.1613">port: Int,</text><ellipse cx="556.296" cy="637.2701" fill="none" rx="2.4" ry="2.4" style="stroke:#038048;stroke-width:0.8000000000000002;"/><text fill="#000000" font-family="sans-serif" font-size="11.2" lengthAdjust="spacing" textLength="64.5678" x="563.496" y="640.4157">path: String,</text><ellipse cx="556.296" cy="652.5244" fill="none" rx="2.4" ry="2.4" style="stroke:#038048;stroke-width:0.8000000000000002;"/><text fill="#000000" font-family="sans-serif" font-size="11.2" lengthAdjust="spacing" textLength="129.0011" x="563.496" y="655.67">queryParameters: String</text><line style="stroke:#181818;stroke-width:0.4000000000000001;" x1="548.296" x2="696.4971" y1="662.1516" y2="662.1516"/></g><!--class EndpointInput--><g id="elem_EndpointInput"><rect codeLine="46" fill="#F1F1F1" height="114.6717" id="EndpointInput" rx="2" ry="2" style="stroke:#181818;stroke-width:0.4000000000000001;" width="149.8011" x="233.896" y="716.5536"/><ellipse cx="267.5298" cy="729.3536" fill="#ADD1B2" rx="8.8" ry="8.8" style="stroke:#181818;stroke-width:0.8000000000000002;"/><path d="M267.1048,734.8911 Q265.7048,734.8911 264.7923,734.3036 Q263.8923,733.7036 263.4423,732.6286 Q263.0048,731.5411 263.0048,730.1036 Q263.0048,728.4786 263.5298,727.3161 Q264.0548,726.1536 265.0798,725.5286 Q266.1048,724.9036 267.6048,724.9036 Q268.3173,724.9036 268.8548,725.0536 Q269.3923,725.1911 269.9423,725.4661 L269.2923,727.0786 Q268.7923,726.8286 268.3548,726.7286 Q267.9298,726.6286 267.5423,726.6286 Q266.6048,726.6286 266.0423,727.0536 Q265.4798,727.4786 265.2423,728.2411 Q265.0048,729.0036 265.0048,730.0161 Q265.0048,731.6286 265.5798,732.4036 Q266.1548,733.1661 267.4298,733.1661 Q267.9048,733.1661 268.4048,733.0411 Q268.9048,732.9161 269.5673,732.6161 L269.5673,734.3911 Q268.9798,734.6411 268.3423,734.7661 Q267.7173,734.8911 267.1048,734.8911 Z " fill="#000000"/><text fill="#000000" font-family="sans-serif" font-size="11.2" lengthAdjust="spacing" textLength="76.1261" x="283.5373" y="733.6992">EndpointInput</text><line style="stroke:#181818;stroke-width:0.4000000000000001;" x1="234.696" x2="382.8971" y1="742.1536" y2="742.1536"/><ellipse cx="242.696" cy="754.1808" fill="none" rx="2.4" ry="2.4" style="stroke:#038048;stroke-width:0.8000000000000002;"/><text fill="#000000" font-family="sans-serif" font-size="11.2" lengthAdjust="spacing" textLength="84.5821" x="249.896" y="757.3263">protocol: String,</text><ellipse cx="242.696" cy="769.4351" fill="none" rx="2.4" ry="2.4" style="stroke:#038048;stroke-width:0.8000000000000002;"/><text fill="#000000" font-family="sans-serif" font-size="11.2" lengthAdjust="spacing" textLength="80.6621" x="249.896" y="772.5807">domain: String,</text><ellipse cx="242.696" cy="784.6894" fill="none" rx="2.4" ry="2.4" style="stroke:#038048;stroke-width:0.8000000000000002;"/><text fill="#000000" font-family="sans-serif" font-size="11.2" lengthAdjust="spacing" textLength="46.0094" x="249.896" y="787.835">port: Int,</text><ellipse cx="242.696" cy="799.9438" fill="none" rx="2.4" ry="2.4" style="stroke:#038048;stroke-width:0.8000000000000002;"/><text fill="#000000" font-family="sans-serif" font-size="11.2" lengthAdjust="spacing" textLength="64.5678" x="249.896" y="803.0893">path: String,</text><ellipse cx="242.696" cy="815.1981" fill="none" rx="2.4" ry="2.4" style="stroke:#038048;stroke-width:0.8000000000000002;"/><text fill="#000000" font-family="sans-serif" font-size="11.2" lengthAdjust="spacing" textLength="129.0011" x="249.896" y="818.3437">queryParameters: String</text><line style="stroke:#181818;stroke-width:0.4000000000000001;" x1="234.696" x2="382.8971" y1="824.8253" y2="824.8253"/></g><!--class EndpointsController--><g id="elem_EndpointsController"><rect codeLine="33" fill="#F1F1F1" height="68.9087" id="EndpointsController" rx="2" ry="2" style="stroke:#181818;stroke-width:0.4000000000000001;" width="421.0529" x="98.272" y="569.1376"/><ellipse cx="252.4675" cy="581.9376" fill="#ADD1B2" rx="8.8" ry="8.8" style="stroke:#181818;stroke-width:0.8000000000000002;"/><path d="M252.0425,587.4751 Q250.6425,587.4751 249.73,586.8876 Q248.83,586.2876 248.38,585.2126 Q247.9425,584.1251 247.9425,582.6876 Q247.9425,581.0626 248.4675,579.9001 Q248.9925,578.7376 250.0175,578.1126 Q251.0425,577.4876 252.5425,577.4876 Q253.255,577.4876 253.7925,577.6376 Q254.33,577.7751 254.88,578.0501 L254.23,579.6626 Q253.73,579.4126 253.2925,579.3126 Q252.8675,579.2126 252.48,579.2126 Q251.5425,579.2126 250.98,579.6376 Q250.4175,580.0626 250.18,580.8251 Q249.9425,581.5876 249.9425,582.6001 Q249.9425,584.2126 250.5175,584.9876 Q251.0925,585.7501 252.3675,585.7501 Q252.8425,585.7501 253.3425,585.6251 Q253.8425,585.5001 254.505,585.2001 L254.505,586.9751 Q253.9175,587.2251 253.28,587.3501 Q252.655,587.4751 252.0425,587.4751 Z " fill="#000000"/><text fill="#000000" font-family="sans-serif" font-size="11.2" lengthAdjust="spacing" textLength="105.862" x="268.8675" y="586.2832">EndpointsController</text><line style="stroke:#181818;stroke-width:0.4000000000000001;" x1="99.072" x2="518.5249" y1="594.7376" y2="594.7376"/><line style="stroke:#181818;stroke-width:0.4000000000000001;" x1="99.072" x2="518.5249" y1="601.1376" y2="601.1376"/><ellipse cx="107.072" cy="613.1648" fill="#84BE84" rx="2.4" ry="2.4" style="stroke:#038048;stroke-width:0.8000000000000002;"/><text fill="#000000" font-family="sans-serif" font-size="11.2" lengthAdjust="spacing" textLength="276.4038" x="114.272" y="616.3103">getEndpoint(id: String) : Response&lt;EndpointOutput&gt;</text><ellipse cx="107.072" cy="628.4191" fill="#84BE84" rx="2.4" ry="2.4" style="stroke:#038048;stroke-width:0.8000000000000002;"/><text fill="#000000" font-family="sans-serif" font-size="11.2" lengthAdjust="spacing" textLength="400.2529" x="114.272" y="631.5647">createEndpoint(endpointInput: EndpointInput): Response&lt;EndpointOutput&gt;</text></g><!--class ApplicationDepencyInjector--><g id="elem_ApplicationDepencyInjector"><rect codeLine="57" fill="#F1F1F1" height="99.4173" id="ApplicationDepencyInjector" rx="2" ry="2" style="stroke:#181818;stroke-width:0.4000000000000001;" width="343.6948" x="1121.752" y="87.7376"/><ellipse cx="1217.4725" cy="100.5376" fill="#ADD1B2" rx="8.8" ry="8.8" style="stroke:#181818;stroke-width:0.8000000000000002;"/><path d="M1217.0475,106.0751 Q1215.6475,106.0751 1214.735,105.4876 Q1213.835,104.8876 1213.385,103.8126 Q1212.9475,102.7251 1212.9475,101.2876 Q1212.9475,99.6626 1213.4725,98.5001 Q1213.9975,97.3376 1215.0225,96.7126 Q1216.0475,96.0876 1217.5475,96.0876 Q1218.26,96.0876 1218.7975,96.2376 Q1219.335,96.3751 1219.885,96.6501 L1219.235,98.2626 Q1218.735,98.0126 1218.2975,97.9126 Q1217.8725,97.8126 1217.485,97.8126 Q1216.5475,97.8126 1215.985,98.2376 Q1215.4225,98.6626 1215.185,99.4251 Q1214.9475,100.1876 1214.9475,101.2001 Q1214.9475,102.8126 1215.5225,103.5876 Q1216.0975,104.3501 1217.3725,104.3501 Q1217.8475,104.3501 1218.3475,104.2251 Q1218.8475,104.1001 1219.51,103.8001 L1219.51,105.5751 Q1218.9225,105.8251 1218.285,105.9501 Q1217.66,106.0751 1217.0475,106.0751 Z " fill="#000000"/><text fill="#000000" font-family="sans-serif" font-size="11.2" lengthAdjust="spacing" textLength="145.4538" x="1233.8725" y="104.8832">ApplicationDepencyInjector</text><line style="stroke:#181818;stroke-width:0.4000000000000001;" x1="1122.552" x2="1464.6468" y1="113.3376" y2="113.3376"/><rect fill="none" height="4.8" style="stroke:#C82930;stroke-width:0.8000000000000002;" width="4.8" x="1128.152" y="122.9648"/><text fill="#000000" font-family="sans-serif" font-size="11.2" lengthAdjust="spacing" textLength="163.8442" x="1137.752" y="128.5103">repository: EndpointRepository</text><line style="stroke:#181818;stroke-width:0.4000000000000001;" x1="1122.552" x2="1464.6468" y1="134.9919" y2="134.9919"/><ellipse cx="1130.552" cy="147.0191" fill="#84BE84" rx="2.4" ry="2.4" style="stroke:#038048;stroke-width:0.8000000000000002;"/><text fill="#000000" font-family="sans-serif" font-size="11.2" lengthAdjust="spacing" textLength="227.4376" x="1137.752" y="150.1647">instantiateController(): EndpointsController</text><ellipse cx="1130.552" cy="162.2734" fill="#84BE84" rx="2.4" ry="2.4" style="stroke:#038048;stroke-width:0.8000000000000002;"/><text fill="#000000" font-family="sans-serif" font-size="11.2" lengthAdjust="spacing" textLength="290.5942" x="1137.752" y="165.419">instantiateGetEndpointUseCase(): GetEndpointUseCase</text><ellipse cx="1130.552" cy="177.5278" fill="#84BE84" rx="2.4" ry="2.4" style="stroke:#038048;stroke-width:0.8000000000000002;"/><text fill="#000000" font-family="sans-serif" font-size="11.2" lengthAdjust="spacing" textLength="322.8948" x="1137.752" y="180.6733">instantiateCreateEndpointUseCase(): CreateEndpointUseCase</text></g><!--class MockEndpointRepository--><g id="elem_MockEndpointRepository"><rect codeLine="68" fill="#F1F1F1" height="99.4173" id="MockEndpointRepository" rx="2" ry="2" style="stroke:#181818;stroke-width:0.4000000000000001;" width="456.5457" x="617.328" y="336.0656"/><ellipse cx="776.0987" cy="348.8656" fill="#ADD1B2" rx="8.8" ry="8.8" style="stroke:#181818;stroke-width:0.8000000000000002;"/><path d="M775.6737,354.4031 Q774.2737,354.4031 773.3612,353.8156 Q772.4612,353.2156 772.0112,352.1406 Q771.5737,351.0531 771.5737,349.6156 Q771.5737,347.9906 772.0987,346.8281 Q772.6237,345.6656 773.6487,345.0406 Q774.6737,344.4156 776.1737,344.4156 Q776.8862,344.4156 777.4237,344.5656 Q777.9612,344.7031 778.5112,344.9781 L777.8612,346.5906 Q777.3612,346.3406 776.9237,346.2406 Q776.4987,346.1406 776.1112,346.1406 Q775.1737,346.1406 774.6112,346.5656 Q774.0487,346.9906 773.8112,347.7531 Q773.5737,348.5156 773.5737,349.5281 Q773.5737,351.1406 774.1487,351.9156 Q774.7237,352.6781 775.9987,352.6781 Q776.4737,352.6781 776.9737,352.5531 Q777.4737,352.4281 778.1362,352.1281 L778.1362,353.9031 Q777.5487,354.1531 776.9112,354.2781 Q776.2862,354.4031 775.6737,354.4031 Z " fill="#000000"/><text fill="#000000" font-family="sans-serif" font-size="11.2" lengthAdjust="spacing" textLength="132.2043" x="792.4987" y="353.2112">MockEndpointRepository</text><line style="stroke:#181818;stroke-width:0.4000000000000001;" x1="618.128" x2="1073.0737" y1="361.6656" y2="361.6656"/><line style="stroke:#181818;stroke-width:0.4000000000000001;" x1="618.128" x2="1073.0737" y1="368.0656" y2="368.0656"/><ellipse cx="626.128" cy="380.0928" fill="#84BE84" rx="2.4" ry="2.4" style="stroke:#038048;stroke-width:0.8000000000000002;"/><text fill="#000000" font-family="sans-serif" font-size="11.2" lengthAdjust="spacing" textLength="156.2282" x="633.328" y="383.2383">getEndpoint(id: Id): Endpoint?</text><ellipse cx="626.128" cy="395.3471" fill="#84BE84" rx="2.4" ry="2.4" style="stroke:#038048;stroke-width:0.8000000000000002;"/><text fill="#000000" font-family="sans-serif" font-size="11.2" lengthAdjust="spacing" textLength="241.8183" x="633.328" y="398.4927">createEndpoint(endpoint: Endpoint): Endpoint</text><ellipse cx="626.128" cy="410.6014" fill="#84BE84" rx="2.4" ry="2.4" style="stroke:#038048;stroke-width:0.8000000000000002;"/><text fill="#000000" font-family="sans-serif" font-size="11.2" lengthAdjust="spacing" textLength="435.7457" x="633.328" y="413.747">updateEndpoint(idOfEndpointToUpdate: Id, endpointUpdated: Endpoint): Endpoint</text><ellipse cx="626.128" cy="425.8558" fill="#84BE84" rx="2.4" ry="2.4" style="stroke:#038048;stroke-width:0.8000000000000002;"/><text fill="#000000" font-family="sans-serif" font-size="11.2" lengthAdjust="spacing" textLength="113.422" x="633.328" y="429.0013">deleteEndpoint(id: Id)</text></g><!--class SqliteRepository--><g id="elem_SqliteRepository"><rect codeLine="74" fill="#F1F1F1" height="129.926" id="SqliteRepository" rx="2" ry="2" style="stroke:#181818;stroke-width:0.4000000000000001;" width="456.5457" x="1102.128" y="320.8096"/><ellipse cx="1284.2338" cy="333.6096" fill="#ADD1B2" rx="8.8" ry="8.8" style="stroke:#181818;stroke-width:0.8000000000000002;"/><path d="M1283.8088,339.1471 Q1282.4088,339.1471 1281.4963,338.5596 Q1280.5963,337.9596 1280.1463,336.8846 Q1279.7088,335.7971 1279.7088,334.3596 Q1279.7088,332.7346 1280.2338,331.5721 Q1280.7588,330.4096 1281.7838,329.7846 Q1282.8088,329.1596 1284.3088,329.1596 Q1285.0213,329.1596 1285.5588,329.3096 Q1286.0963,329.4471 1286.6463,329.7221 L1285.9963,331.3346 Q1285.4963,331.0846 1285.0588,330.9846 Q1284.6338,330.8846 1284.2463,330.8846 Q1283.3088,330.8846 1282.7463,331.3096 Q1282.1838,331.7346 1281.9463,332.4971 Q1281.7088,333.2596 1281.7088,334.2721 Q1281.7088,335.8846 1282.2838,336.6596 Q1282.8588,337.4221 1284.1338,337.4221 Q1284.6088,337.4221 1285.1088,337.2971 Q1285.6088,337.1721 1286.2713,336.8721 L1286.2713,338.6471 Q1285.6838,338.8971 1285.0463,339.0221 Q1284.4213,339.1471 1283.8088,339.1471 Z " fill="#000000"/><text fill="#000000" font-family="sans-serif" font-size="11.2" lengthAdjust="spacing" textLength="85.5341" x="1300.6338" y="337.9552">SqliteRepository</text><line style="stroke:#181818;stroke-width:0.4000000000000001;" x1="1102.928" x2="1557.8737" y1="346.4096" y2="346.4096"/><line style="stroke:#181818;stroke-width:0.4000000000000001;" x1="1102.928" x2="1557.8737" y1="352.8096" y2="352.8096"/><ellipse cx="1110.928" cy="364.8368" fill="#84BE84" rx="2.4" ry="2.4" style="stroke:#038048;stroke-width:0.8000000000000002;"/><text fill="#000000" font-family="sans-serif" font-size="11.2" lengthAdjust="spacing" textLength="48.451" x="1118.128" y="367.9823">connect()</text><ellipse cx="1110.928" cy="380.0911" fill="#84BE84" rx="2.4" ry="2.4" style="stroke:#038048;stroke-width:0.8000000000000002;"/><text fill="#000000" font-family="sans-serif" font-size="11.2" lengthAdjust="spacing" textLength="63.5933" x="1118.128" y="383.2367">disconnect()</text><ellipse cx="1110.928" cy="395.3454" fill="#84BE84" rx="2.4" ry="2.4" style="stroke:#038048;stroke-width:0.8000000000000002;"/><text fill="#000000" font-family="sans-serif" font-size="11.2" lengthAdjust="spacing" textLength="156.2282" x="1118.128" y="398.491">getEndpoint(id: Id): Endpoint?</text><ellipse cx="1110.928" cy="410.5998" fill="#84BE84" rx="2.4" ry="2.4" style="stroke:#038048;stroke-width:0.8000000000000002;"/><text fill="#000000" font-family="sans-serif" font-size="11.2" lengthAdjust="spacing" textLength="241.8183" x="1118.128" y="413.7453">createEndpoint(endpoint: Endpoint): Endpoint</text><ellipse cx="1110.928" cy="425.8541" fill="#84BE84" rx="2.4" ry="2.4" style="stroke:#038048;stroke-width:0.8000000000000002;"/><text fill="#000000" font-family="sans-serif" font-size="11.2" lengthAdjust="spacing" textLength="435.7457" x="1118.128" y="428.9997">updateEndpoint(idOfEndpointToUpdate: Id, endpointUpdated: Endpoint): Endpoint</text><ellipse cx="1110.928" cy="441.1084" fill="#84BE84" rx="2.4" ry="2.4" style="stroke:#038048;stroke-width:0.8000000000000002;"/><text fill="#000000" font-family="sans-serif" font-size="11.2" lengthAdjust="spacing" textLength="113.422" x="1118.128" y="444.254">deleteEndpoint(id: Id)</text></g><!--reverse link EndpointRepository to MockEndpointRepository--><g id="link_EndpointRepository_MockEndpointRepository"><path d="M678.9118,198.0372 C717.3198,241.1092 763.328,292.7056 801.768,335.8176 " fill="none" id="EndpointRepository-backto-MockEndpointRepository" style="stroke:#181818;stroke-width:0.8000000000000002;stroke-dasharray:7.0,7.0;"/><polygon fill="none" points="669.328,187.2896,675.3293,201.2318,682.4943,194.8426,669.328,187.2896" style="stroke:#181818;stroke-width:0.8000000000000002;"/></g><!--reverse link EndpointRepository to SqliteRepository--><g id="link_EndpointRepository_SqliteRepository"><path d="M868.1984,181.6975 C944.0304,198.6175 1013.912,218.1216 1088,247.2096 C1137.448,266.6256 1189.048,294.7136 1231.872,320.4656 " fill="none" id="EndpointRepository-backto-SqliteRepository" style="stroke:#181818;stroke-width:0.8000000000000002;stroke-dasharray:7.0,7.0;"/><polygon fill="none" points="854.144,178.5616,867.1531,186.3823,869.2437,177.0127,854.144,178.5616" style="stroke:#181818;stroke-width:0.8000000000000002;"/></g><!--link CreateEndpointUseCase to EndpointRepository--><g id="link_CreateEndpointUseCase_EndpointRepository"><path codeLine="86" d="M170.568,358.6736 C192.24,326.0656 234.024,271.7936 285.6,247.2096 C301.696,239.5376 348.224,244.8416 365.6,240.8096 C418.544,228.5376 470.5134,209.2542 517.1934,189.3262 " fill="none" id="CreateEndpointUseCase-to-EndpointRepository" style="stroke:#181818;stroke-width:0.8000000000000002;"/><polygon fill="#181818" points="521.608,187.4416,513.7298,187.3255,517.9292,189.0121,516.2426,193.2115,521.608,187.4416" style="stroke:#181818;stroke-width:0.8000000000000002;"/></g><!--link GetEndpointUseCase to EndpointRepository--><g id="link_GetEndpointUseCase_EndpointRepository"><path codeLine="87" d="M438.952,358.8016 C473.416,318.0736 537.3472,242.5296 580.9952,190.9536 " fill="none" id="GetEndpointUseCase-to-EndpointRepository" style="stroke:#181818;stroke-width:0.8000000000000002;"/><polygon fill="#181818" points="584.096,187.2896,577.0021,190.7184,581.512,190.3429,581.8875,194.8528,584.096,187.2896" style="stroke:#181818;stroke-width:0.8000000000000002;"/></g><!--reverse link Endpoint to CreateEndpointUseCase--><g id="link_Endpoint_CreateEndpointUseCase"><path codeLine="88" d="M221.2465,207.2464 C202.1345,258.0704 178.152,321.8176 164.288,358.6896 " fill="none" id="Endpoint-backto-CreateEndpointUseCase" style="stroke:#181818;stroke-width:0.8000000000000002;"/><polygon fill="#181818" points="222.936,202.7536,217.4065,208.3665,221.5281,206.4976,223.397,210.6192,222.936,202.7536" style="stroke:#181818;stroke-width:0.8000000000000002;"/></g><!--reverse link Endpoint to GetEndpointUseCase--><g id="link_Endpoint_GetEndpointUseCase"><path codeLine="89" d="M294.2555,206.7089 C329.1995,257.5329 373.392,321.8176 398.728,358.6896 " fill="none" id="Endpoint-backto-GetEndpointUseCase" style="stroke:#181818;stroke-width:0.8000000000000002;"/><polygon fill="#181818" points="291.536,202.7536,292.9783,210.4995,293.8022,206.0497,298.2521,206.8736,291.536,202.7536" style="stroke:#181818;stroke-width:0.8000000000000002;"/></g><!--link EndpointsController to EndpointOutput--><g id="link_EndpointsController_EndpointOutput"><path codeLine="92" d="M519.504,603.5936 C528.744,603.5936 533.192,603.5936 542.432,603.5936 " fill="none" id="EndpointsController-to-EndpointOutput" style="stroke:#181818;stroke-width:0.8000000000000002;"/><polygon fill="#181818" points="547.232,603.5936,540.032,600.3936,543.232,603.5936,540.032,606.7936,547.232,603.5936" style="stroke:#181818;stroke-width:0.8000000000000002;"/></g><!--link EndpointsController to EndpointInput--><g id="link_EndpointsController_EndpointInput"><path codeLine="93" d="M308.8,638.3296 C308.8,660.6496 308.8,685.6096 308.8,711.4896 " fill="none" id="EndpointsController-to-EndpointInput" style="stroke:#181818;stroke-width:0.8000000000000002;"/><polygon fill="#181818" points="308.8,716.2896,312,709.0896,308.8,712.2896,305.6,709.0896,308.8,716.2896" style="stroke:#181818;stroke-width:0.8000000000000002;"/></g><!--reverse link CreateEndpointUseCase to EndpointsController--><g id="link_CreateEndpointUseCase_EndpointsController"><path codeLine="94" d="M175.9657,416.7797 C203.9337,455.9397 253.752,525.6976 284.576,568.8736 " fill="none" id="CreateEndpointUseCase-backto-EndpointsController" style="stroke:#181818;stroke-width:0.8000000000000002;"/><polygon fill="#181818" points="173.176,412.8736,174.7565,420.5925,175.5008,416.1287,179.9646,416.8729,173.176,412.8736" style="stroke:#181818;stroke-width:0.8000000000000002;"/></g><!--reverse link GetEndpointUseCase to EndpointsController--><g id="link_GetEndpointUseCase_EndpointsController"><path codeLine="95" d="M401.5191,417.1677 C381.9591,456.3277 347.304,525.6976 325.744,568.8736 " fill="none" id="GetEndpointUseCase-backto-EndpointsController" style="stroke:#181818;stroke-width:0.8000000000000002;"/><polygon fill="#181818" points="403.664,412.8736,397.5839,417.8849,401.8766,416.452,403.3094,420.7447,403.664,412.8736" style="stroke:#181818;stroke-width:0.8000000000000002;"/></g><!--SRC=[vLPVJzim47_Ff_0RhKOgRNkB9X0gQEh31eFn0IpdMZmIszWNJTNKxputQMAxTbhGc7WW3sbp_tptkv_FLfGzqXKGgbJ56KKknQmnmAW1yYSZzc4LDORCDL24Ar4goGNU6vWxY-sJ4zZfRa59mr7gTK6k8bdhiF42VmLyjQYRB5ExUafPKovcjIoX2WhfdTqgEU5bGHQb-rPQecIoAiZDxf_JTO4BSjd-VgSrU7vIe_MnRqz6yS7AxDl9dXhGwnkghJE2DWNv4Gf6oz53nRlqRI6WbvH10XGFnmzavM2UTELE7P3ddY4B6ZtfyNV6df_drgZIT-FbzRB_-2dlM-LsqTEXePsiF1RNjW-2k6tgCK0VSowMcXhK3SD6zoHI0xsv1qV813EN0hMiAj2UpJXqTwYvM4r9GMx1A2aCVEdrrmsg1iyIGKPWNGXhxmflFwVF3Bo9zb9e7VJV9Nv-weaTqpkbh-kP7ciwdYy41iAMwB5nHFREP3Jv5eCWzpTFqkFPfyCyOsNCimitMYz1WM3hXVW5p6xHFRhbH1-VSbvBXK4ga5jUEGPFl6ta4NlSDPw_sn2nzC3YgQDX6oIfoFRfwu7x-J2uodQ66xG8GWJoDyaU4oEGrwg26YmMyGYT7HoPBngR_p0w_-VuF3f2NHySadTF5KTuHGoP5CBIVJBTpukRCTMxWRsb_ubt-ShI5wrSyzK3vcVFwa2Mk5EzBC184eso0OPoKwk45jb9k9-pr94xP1QUNcdRKluMdcbxLgGjsqpI4sZSFZ7s_W80]--></g></svg>